<svg xmlns="http://www.w3.org/2000/svg" xmlns:xlink="http://www.w3.org/1999/xlink" version="1.1" baseProfile="full" viewBox="0 0 200 200" width="200" height="200">
<g fill="black">
<path d="M 56.0 104.5 L 54.9 102.2 L 53.7 100.0 L 52.3 97.8 L 50.8 95.6 L 49.2 93.4 L 47.4 91.3 L 47.4 183.0 L 35.4 189.0 L 35.4 101.08333330154419 L 32.9 108.5 L 29.6 117.0 L 26.1 125.3 L 22.2 133.4 L 17.9 141.0 L 13.2 148.4 L 11.6 147.5 L 17.2 131.3 L 19.9 123.0 L 22.5 114.6 L 24.8 105.9 L 26.9 97.2 L 28.9 88.2 L 30.6 79.0 L 32.0 69.6 L 32.844186019897464 63.0 L 12.4 63.0 L 12.4 59.0 L 35.4 59.0 L 35.4 14.0 L 47.4 16.0 L 50.4 18.0 L 47.4 19.8 L 47.4 59.0 L 50.018181800842285 59.0 L 58.2 50.0 L 68.2 59.0 L 68.2 63.0 L 47.4 63.0 L 47.4 87.08965520858764 L 49.8 88.0 L 52.5 89.3 L 55.2 90.8 L 57.7 92.5 L 60.1 94.4 L 62.4 96.4 L 64.5 98.6 L 66.6 101.0 L 68.5 103.5 L 68.8 108.0 L 66.0 111.6 L 61.4 112.0 L 57.9 109.1 L 57.0 106.8 Z M 99.0 176.1 L 116.2 176.1 L 117.1 175.9 L 117.7 175.7 L 118.0 175.5 L 118.2 175.4 L 118.4 175.2 L 118.7 174.3 L 118.9 173.4 L 119.0 172.1 L 119.0 157.0 L 71.4 157.0 L 71.4 153.0 L 119.0 153.0 L 119.0 138.2 L 81.8 138.2 L 81.8 134.2 L 119.0 134.2 L 119.0 120.03389825820923 L 114.1 120.2 L 107.7 120.1 L 100.8 119.8 L 93.6 119.3 L 93.5 117.5 L 100.6 116.1 L 107.2 114.8 L 113.4 113.6 L 119.2 112.5 L 124.5 111.4 L 129.3 110.3 L 133.6 109.2 L 137.5 108.0 L 140.9 106.8 L 142.7337103843689 106.07961378097534 L 142.7 106.0 L 142.7751605987549 106.0633297920227 L 143.7 105.7 L 144.21043043136598 107.27267751693725 L 153.5 115.1 L 153.7 118.2 L 149.58376178741455 116.38401250839233 L 147.4 117.1 L 143.8 117.8 L 139.8 118.5 L 135.5 119.0 L 131.0 119.46875 L 131.0 134.2 L 146.1 134.2 L 156.1 124.2 L 168.1 134.2 L 168.1 138.2 L 131.0 138.2 L 131.0 153.0 L 156.5 153.0 L 166.5 143.0 L 178.5 153.0 L 178.5 157.0 L 131.0 157.0 L 131.0 172.1 L 130.8 174.7 L 130.4 177.2 L 129.6 179.6 L 128.3 181.9 L 126.7 183.9 L 124.7 185.5 L 122.4 186.8 L 120.0 187.6 L 117.5 188.0 L 115.0 188.1 L 115.0 182.1 L 99.0 179.1 Z M 171.9 130.1 L 168.7 126.6 L 165.6 123.0 L 162.6 119.1 L 159.7 114.9 L 156.9 110.5 L 154.3 105.7 L 152.0 100.7 L 150.1722222328186 96.0 L 109.0666666984558 96.0 L 104.8 102.4 L 100.9 107.6 L 96.9 112.5 L 92.8 117.3 L 88.4 121.9 L 83.9 126.2 L 79.3 130.3 L 74.4 134.1 L 69.3 137.6 L 63.9 140.7 L 62.8 139.3 L 66.8 134.7 L 70.7 130.2 L 74.6 125.6 L 78.4 121.0 L 82.0 116.3 L 85.5 111.5 L 88.9 106.5 L 92.1 101.5 L 95.2 96.3 L 95.35652170181274 96.0 L 64.8 96.0 L 64.8 92.0 L 74.75821723937989 92.0 L 73.3 22.2 L 83.08646364212036 26.81015224456787 L 86.7 24.1 L 89.0 22.4 L 91.2 20.7 L 93.2 19.1 L 95.2 17.4 L 97.0 15.8 L 98.7 14.2 L 99.59230766296386 13.307692337036134 L 99.5 13.2 L 99.5934910774231 13.306508922576905 L 100.3 12.6 L 106.4320616722107 21.09728536605835 L 107.4 22.2 L 107.6 25.8 L 103.46330270767211 24.114678859710693 L 102.5 24.5 L 100.0 25.6 L 94.6 27.4 L 91.8 28.2 L 88.9 28.9 L 85.9 29.6 L 85.4399250984192 29.65936450958252 L 85.82889556884766 46.8 L 93.27777776718139 46.8 L 99.5 39.8 L 107.5 46.8 L 107.5 50.8 L 85.9196671485901 50.8 L 86.34175491333008 69.4 L 93.27777776718139 69.4 L 99.5 62.4 L 107.5 69.4 L 107.5 73.4 L 86.43252649307252 73.4 L 86.8546142578125 92.0 L 111.24833841323853 92.0 L 112.0 60.9 L 123.9 63.1 L 126.9 65.2 L 123.83706617355347 66.34109296798707 L 123.33883495330811 92.0 L 130.13097343444824 92.0 L 130.76902656555177 50.8 L 123.20190734863282 50.8 L 123.2 50.9 L 111.1 56.7 L 112.0 12.0 L 123.9 14.2 L 126.9 16.3 L 123.83775043487549 17.463654804229737 L 123.6367847442627 28.0 L 130.37777776718139 28.0 L 136.6 21.0 L 144.6 28.0 L 144.6 32.0 L 123.56049041748047 32.0 L 123.27820167541503 46.8 L 130.9 46.8 L 136.9 41.8 L 146.7 49.81818180084228 L 146.7 46.8 L 164.46410636901857 46.8 L 165.03796157836913 28.3 L 148.1 28.3 L 148.1 24.3 L 165.2 24.3 L 171.2 19.3 L 182.2 28.3 L 177.2 31.3 L 176.1266574859619 31.74722604751587 L 175.13298349380494 92.0 L 175.4 92.0 L 179.9 86.0 L 185.9 92.0 L 185.9 96.0 L 152.9785714149475 96.0 L 155.3 98.5 L 159.1 102.4 L 162.6 106.2 L 166.1 109.7 L 169.5 113.0 L 172.9 115.9 L 176.2 118.7 L 179.5 121.1 L 182.8 123.2 L 186.0 125.1 L 189.7 127.6 L 178.7 136.1 L 175.2 133.2 Z M 147.9 50.8 L 142.9 53.8 L 141.92989282608033 54.20421133041382 L 142.18642530441284 92.0 L 163.06203842163086 92.0 L 163.638995552063 73.4 L 146.7 73.4 L 146.7 69.4 L 163.7630723953247 69.4 L 164.34002952575685 50.8 Z " />
</g>
</svg>
