<?xml version="1.0" encoding="utf-8"?>
<!-- Generator: Adobe Illustrator 24.2.3, SVG Export Plug-In . SVG Version: 6.00 Build 0)  -->
<svg version="1.1" id="Layer_1" xmlns="http://www.w3.org/2000/svg" xmlns:xlink="http://www.w3.org/1999/xlink" x="0px" y="0px"
	 viewBox="0 0 432 288" style="enable-background:new 0 0 432 288;" xml:space="preserve">
<style type="text/css">
	.st0{fill:none;stroke:#231F20;stroke-miterlimit:10;}
	.st1{clip-path:url(#SVGID_2_);}
	.st2{opacity:0.7;}
	.st3{fill:none;stroke:#231F20;stroke-width:0.5;stroke-miterlimit:10;}
</style>
<g>
	<g>
		<g>
			<path class="st0" d="M40.32,272.28c-1.36,0-2.66-0.26-3.91-0.78c-1.25-0.52-2.38-1.23-3.36-2.14c-0.99-0.91-1.77-1.97-2.36-3.18
				c-0.58-1.21-0.87-2.49-0.87-3.85v-56.35h2.9v55.35c0,1.1,0.21,2.13,0.63,3.09c0.42,0.97,0.99,1.82,1.71,2.55
				c0.72,0.74,1.55,1.32,2.49,1.75c0.94,0.43,1.92,0.65,2.96,0.65h8.74v2.9H40.32z"/>
			<path class="st0" d="M54.07,215.5v-9.43h3.07v9.43H54.07z M54.07,272.28v-49h3.07v49H54.07z"/>
			<path class="st0" d="M81.74,272.28v-38.79c0-1.04-0.2-2.02-0.6-2.94c-0.4-0.92-0.95-1.74-1.64-2.44
				c-0.69-0.71-1.5-1.26-2.41-1.67c-0.92-0.4-1.9-0.6-2.93-0.6c-1.09,0-2.12,0.2-3.08,0.6c-0.96,0.41-1.81,0.96-2.54,1.67
				c-0.73,0.71-1.32,1.52-1.75,2.44c-0.43,0.92-0.65,1.9-0.65,2.94v38.79h-2.9v-39.66c0-1.36,0.31-2.62,0.93-3.81
				c0.62-1.18,1.44-2.21,2.46-3.07c1.02-0.87,2.18-1.55,3.48-2.05c1.3-0.5,2.64-0.76,4.02-0.76c1.33,0,2.63,0.25,3.91,0.76
				c1.28,0.5,2.42,1.19,3.42,2.05c0.99,0.86,1.79,1.89,2.4,3.07c0.6,1.18,0.91,2.45,0.91,3.81v39.66H81.74z"/>
			<path class="st0" d="M89.78,262.77v-30.06c0-1.33,0.3-2.58,0.89-3.76c0.59-1.18,1.38-2.21,2.36-3.07
				c0.98-0.87,2.1-1.55,3.36-2.05c1.26-0.5,2.55-0.76,3.88-0.76c1.33,0,2.62,0.25,3.88,0.76c1.26,0.5,2.38,1.19,3.36,2.05
				c0.98,0.87,1.77,1.89,2.36,3.07c0.59,1.18,0.89,2.44,0.89,3.76v6.01c0,0.14-0.03,0.35-0.09,0.63c-0.06,0.27-0.2,0.53-0.43,0.76
				c-0.2,0.23-0.45,0.37-0.74,0.43c-0.29,0.06-0.52,0.09-0.69,0.09H92.59v21.28c0,1.1,0.21,2.11,0.63,3.05
				c0.42,0.94,0.97,1.75,1.67,2.44c0.69,0.69,1.5,1.23,2.42,1.62c0.92,0.39,1.9,0.58,2.94,0.58c1.07,0,2.06-0.19,2.98-0.58
				c0.92-0.39,1.73-0.93,2.42-1.62c0.69-0.69,1.23-1.51,1.62-2.44c0.39-0.94,0.58-1.95,0.58-3.05v-6.83h2.9v7.7
				c0,1.36-0.3,2.62-0.91,3.81c-0.61,1.18-1.4,2.21-2.38,3.09c-0.98,0.88-2.1,1.57-3.36,2.08s-2.54,0.76-3.83,0.76
				c-1.33,0-2.62-0.25-3.88-0.76c-1.26-0.5-2.38-1.2-3.36-2.08c-0.98-0.88-1.77-1.91-2.36-3.09
				C90.08,265.39,89.78,264.13,89.78,262.77z M107.86,237.64v-4.05c0-1.03-0.19-2.01-0.58-2.93c-0.39-0.92-0.93-1.72-1.62-2.41
				c-0.69-0.69-1.5-1.24-2.42-1.66c-0.92-0.42-1.92-0.63-2.98-0.63c-1.04,0-2.02,0.21-2.94,0.63c-0.92,0.42-1.73,0.97-2.42,1.66
				c-0.69,0.69-1.25,1.49-1.67,2.41c-0.42,0.92-0.63,1.9-0.63,2.93v4.05H107.86z"/>
			<path class="st0" d="M115.3,262.73v-7.78h2.9v6.88c0,1.1,0.21,2.12,0.63,3.07c0.42,0.95,0.98,1.77,1.69,2.46
				c0.71,0.69,1.52,1.24,2.44,1.64c0.92,0.4,1.9,0.61,2.94,0.61c1.04,0,2.02-0.21,2.94-0.63c0.92-0.42,1.73-0.98,2.42-1.69
				c0.69-0.71,1.24-1.54,1.64-2.49c0.4-0.95,0.6-1.97,0.6-3.07v-11.89c0-1.64-0.35-2.91-1.06-3.81c-0.71-0.89-1.61-1.58-2.7-2.05
				c-1.1-0.48-2.32-0.84-3.68-1.1c-1.36-0.26-2.68-0.6-3.98-1.04c-0.89-0.29-1.75-0.66-2.57-1.1c-0.82-0.45-1.54-1.03-2.16-1.75
				c-0.62-0.72-1.12-1.59-1.49-2.59c-0.37-1.01-0.56-2.23-0.56-3.68c0-1.56,0.3-2.93,0.91-4.13c0.6-1.2,1.4-2.2,2.38-3.01
				c0.98-0.81,2.1-1.42,3.37-1.84c1.27-0.42,2.58-0.63,3.94-0.63c1.32,0,2.62,0.26,3.87,0.77c1.25,0.51,2.37,1.2,3.35,2.08
				c0.98,0.87,1.76,1.89,2.34,3.06c0.58,1.17,0.86,2.41,0.86,3.74h-2.81c0-0.84-0.2-1.66-0.6-2.47c-0.4-0.81-0.95-1.53-1.64-2.16
				c-0.69-0.63-1.5-1.15-2.42-1.54c-0.92-0.39-1.9-0.58-2.94-0.58c-1.04,0-2.02,0.16-2.94,0.48c-0.92,0.32-1.74,0.77-2.44,1.36
				c-0.71,0.59-1.27,1.3-1.69,2.14c-0.42,0.83-0.63,1.76-0.63,2.76c0,1.38,0.23,2.51,0.69,3.37c0.46,0.86,1.08,1.55,1.86,2.07
				c0.78,0.52,1.67,0.92,2.66,1.21c0.99,0.29,2.02,0.55,3.09,0.78c1.38,0.29,2.67,0.65,3.87,1.08c1.2,0.43,2.23,0.99,3.11,1.66
				c0.88,0.68,1.57,1.5,2.08,2.48c0.5,0.98,0.76,2.16,0.76,3.54v13.78c0,1.35-0.29,2.62-0.86,3.8c-0.58,1.18-1.35,2.21-2.31,3.09
				c-0.97,0.88-2.08,1.58-3.33,2.09c-1.25,0.52-2.56,0.78-3.91,0.78c-1.36,0-2.67-0.25-3.94-0.76c-1.27-0.5-2.39-1.2-3.37-2.08
				c-0.98-0.88-1.77-1.92-2.38-3.11C115.6,265.36,115.3,264.08,115.3,262.73z"/>
			<path class="st0" d="M169.52,272.28l0.13-56.7c0-1.35,0.3-2.62,0.91-3.78c0.6-1.17,1.41-2.18,2.4-3.05
				c0.99-0.87,2.13-1.54,3.42-2.03c1.28-0.49,2.59-0.74,3.91-0.74h8.82v2.9h-8.52c-1.15,0-2.22,0.19-3.2,0.58
				c-0.98,0.39-1.82,0.92-2.53,1.58c-0.71,0.66-1.25,1.46-1.64,2.4c-0.39,0.94-0.58,1.94-0.58,3v6.83h16.48v2.9h-16.48l-0.13,46.1
				H169.52z"/>
			<path class="st0" d="M195.21,262.68v-56.61h3.03v55.65c0,1.1,0.19,2.11,0.58,3.03c0.39,0.92,0.93,1.72,1.62,2.4
				c0.69,0.68,1.51,1.22,2.46,1.62c0.95,0.41,1.97,0.63,3.07,0.69v2.9c-1.36,0-2.67-0.25-3.96-0.76c-1.28-0.5-2.43-1.19-3.44-2.05
				c-1.01-0.87-1.82-1.89-2.44-3.07C195.52,265.31,195.21,264.04,195.21,262.68z"/>
			<path class="st0" d="M210.99,263.16v-30.88c0.03-1.33,0.34-2.58,0.93-3.76c0.59-1.18,1.38-2.21,2.36-3.07
				c0.98-0.87,2.1-1.55,3.35-2.05c1.25-0.5,2.56-0.76,3.91-0.76c1.33,0,2.63,0.25,3.91,0.76c1.28,0.5,2.42,1.19,3.42,2.05
				c0.99,0.86,1.79,1.89,2.4,3.07c0.6,1.18,0.91,2.44,0.91,3.76v30.88c0,1.36-0.3,2.62-0.91,3.78c-0.61,1.17-1.41,2.19-2.4,3.07
				c-1,0.88-2.14,1.57-3.42,2.08c-1.28,0.5-2.59,0.76-3.91,0.76c-1.36,0-2.66-0.25-3.91-0.76c-1.25-0.5-2.38-1.19-3.37-2.05
				c-1-0.87-1.79-1.89-2.38-3.07C211.29,265.78,210.99,264.52,210.99,263.16z M213.8,233.18v29.09c0,1.09,0.21,2.11,0.63,3.04
				c0.42,0.94,0.98,1.75,1.69,2.44c0.71,0.69,1.53,1.23,2.47,1.62c0.94,0.39,1.92,0.58,2.96,0.58s2.03-0.19,2.96-0.58
				c0.94-0.39,1.76-0.93,2.46-1.62c0.71-0.69,1.27-1.5,1.69-2.44c0.42-0.94,0.63-1.95,0.63-3.04v-29.09c0-1.04-0.21-2.01-0.63-2.94
				c-0.42-0.92-0.99-1.73-1.71-2.42c-0.72-0.69-1.54-1.24-2.47-1.66c-0.92-0.42-1.9-0.63-2.94-0.63s-2.03,0.21-2.96,0.63
				c-0.94,0.42-1.76,0.97-2.47,1.66c-0.71,0.69-1.27,1.5-1.69,2.42C214.01,231.16,213.8,232.14,213.8,233.18z"/>
			<path class="st0" d="M277.37,223.29v39.66c0,1.36-0.3,2.62-0.91,3.81c-0.6,1.18-1.4,2.21-2.4,3.07
				c-0.99,0.87-2.11,1.55-3.37,2.05c-1.25,0.5-2.52,0.76-3.82,0.76c-0.98,0-1.94-0.13-2.89-0.39c-0.95-0.26-1.84-0.63-2.67-1.1
				c-0.83-0.48-1.58-1.04-2.24-1.69c-0.66-0.65-1.19-1.38-1.6-2.18c-0.4,0.81-0.94,1.54-1.6,2.18c-0.66,0.65-1.39,1.21-2.18,1.69
				c-0.79,0.48-1.64,0.84-2.55,1.1c-0.91,0.26-1.82,0.39-2.75,0.39c-1.36,0-2.66-0.25-3.91-0.76c-1.25-0.5-2.38-1.19-3.37-2.05
				c-1-0.86-1.79-1.89-2.38-3.07c-0.59-1.18-0.89-2.45-0.89-3.81v-39.66h2.9v38.79c0,1.04,0.19,2.02,0.58,2.94
				c0.39,0.92,0.92,1.74,1.6,2.44c0.68,0.71,1.48,1.26,2.42,1.67c0.94,0.4,1.95,0.61,3.05,0.61c0.98,0,1.92-0.19,2.83-0.58
				c0.91-0.39,1.71-0.91,2.4-1.58c0.69-0.66,1.25-1.44,1.67-2.34c0.42-0.89,0.66-1.84,0.71-2.85v-39.09h3.03v39.09
				c0.03,1.01,0.26,1.96,0.69,2.85c0.43,0.89,1,1.67,1.71,2.34c0.71,0.66,1.53,1.19,2.46,1.58c0.94,0.39,1.94,0.58,3.01,0.58
				c1.01,0,1.96-0.21,2.85-0.63c0.89-0.42,1.69-0.97,2.38-1.67c0.69-0.69,1.25-1.51,1.66-2.44c0.42-0.94,0.64-1.92,0.67-2.96v-38.79
				L277.37,223.29z"/>
		</g>
	</g>
	<g>
		<defs>
			<rect id="SVGID_1_" x="72" y="-72" transform="matrix(6.123234e-17 -1 1 6.123234e-17 72 360)" width="288" height="432"/>
		</defs>
		<clipPath id="SVGID_2_">
			<use xlink:href="#SVGID_1_"  style="overflow:visible;"/>
		</clipPath>
		<g class="st1">
			<g class="st2">
				<g>
					<path class="st3" d="M445.04,3.42c-3.87-0.08-7.72,0.39-11.16,1.34C331.33,33.21,304.47,23.93,280.77,15.75
						c-12.65-4.37-24.59-8.49-46.52-6.66c-12.54,1.04-23.94,3.53-34.98,5.93c-19.88,4.33-38.65,8.42-60.49,3.17
						c-2.55-0.61-5.14-1.3-7.65-1.97c-9.99-2.65-20.32-5.38-30.77-4.32c-15.7,1.6-27.33,10.3-38.58,18.71
						c-5.84,4.37-11.87,8.88-18.36,12.29c-18.23,9.58-29.21,5.08-41.93-0.14c-6.35-2.6-12.87-5.27-20.78-6.42v0.58
						c7.77,1.15,14.21,3.78,20.48,6.35c12.36,5.07,24.04,9.86,42.59,0.11c6.53-3.43,12.59-7.97,18.45-12.35
						c11.17-8.36,22.72-17,38.21-18.58c10.3-1.05,20.57,1.67,30.49,4.3c2.52,0.67,5.12,1.36,7.67,1.97
						c22.01,5.3,40.87,1.19,60.84-3.16c11.01-2.4,22.39-4.88,34.87-5.92c21.76-1.81,33.63,2.28,46.19,6.62
						C304.32,24.5,331.3,33.81,434.09,5.3c3.38-0.94,7.16-1.39,10.95-1.31V3.42z"/>
				</g>
				<g>
					<path class="st3" d="M445.04,10.62c-5.9-1.03-12.34-0.55-17.79,1.06c-4.45,1.32-8.12,2.35-11.56,3.24
						c-18.27,4.76-33.49,7.06-46.92,9.08c-17.54,2.65-32.01,4.17-44.23,4.63c-21.05,0.8-32.92-2.44-44.39-5.57
						c-1.97-0.54-4-1.09-6.03-1.61c-11.48-2.92-22.36-5.2-39.33-3.52c-1.72,0.17-3.45,0.38-5.29,0.65
						c-9.32,1.36-17.82,3.54-26.03,5.65c-10.21,2.62-19.86,5.09-30.56,5.96c-10.47,0.87-20.19,0.13-29.72-2.27
						c-2.68-0.67-5.4-1.44-8.04-2.18c-9.4-2.63-19.12-5.34-28.88-4.76c-15.26,0.93-26.8,8.51-37.96,15.83
						C62.75,40.47,57,44.24,50.84,47.18C33.11,55.63,22.48,52,10.18,47.81c-6.95-2.37-14.13-4.82-23.26-5.3
						c-1.15-0.06-2.35-0.09-3.58-0.08c-0.87,0.01-1.75,0.07-2.62,0.16v0.57c0.87-0.09,1.75-0.15,2.63-0.16
						c1.21-0.01,2.4,0.01,3.53,0.07c9.02,0.48,16.15,2.91,23.05,5.26c11.95,4.07,23.23,7.92,41.25-0.66
						c6.2-2.96,11.97-6.74,17.55-10.41c11.08-7.28,22.54-14.8,37.59-15.72c9.63-0.58,19.28,2.12,28.61,4.73
						c2.64,0.74,5.37,1.5,8.06,2.18c9.62,2.42,19.43,3.17,29.98,2.29c10.77-0.87,20.44-3.35,30.69-5.98
						c8.19-2.1,16.66-4.27,25.95-5.63c1.83-0.27,3.55-0.48,5.25-0.65c16.83-1.67,27.65,0.6,39.05,3.5c2.02,0.52,4.05,1.07,6.01,1.61
						c11.53,3.15,23.47,6.41,44.63,5.6c12.26-0.47,26.76-1.99,44.32-4.64c13.44-2.03,28.68-4.33,47-9.1
						c3.44-0.9,7.12-1.93,11.58-3.25c5.39-1.6,11.76-2.06,17.57-1.02V10.62z"/>
				</g>
				<g>
					<path class="st3" d="M445.04,19c-7.33-3.26-16.83-2.81-24.43-0.4c-4.36,1.38-7.9,2.41-11.16,3.24
						c-14.59,3.74-26.53,5.05-38.08,6.31c-2.45,0.27-4.86,0.53-7.25,0.81c-18.73,2.22-31.96,3.54-42.9,4.29
						c-19.7,1.34-30.96-0.84-41.84-2.96c-1.97-0.38-4-0.78-6.03-1.14c-0.91-0.16-1.83-0.33-2.77-0.5
						c-9.43-1.71-20.12-3.64-35.26-1.88c-1.63,0.19-3.29,0.43-5.09,0.75c-8.48,1.5-16.02,3.77-23.31,5.96
						c-9.95,2.99-19.34,5.82-30.56,6.66c-10.12,0.76-19.54-0.06-28.79-2.49c-2.83-0.75-5.71-1.6-8.5-2.43
						c-8.78-2.6-17.82-5.29-26.91-5.15C97.27,30.3,86.25,36.5,74.59,43.06c-5.2,2.93-10.58,5.95-16.33,8.39
						c-17.23,7.32-27.5,4.58-39.39,1.41c-6.65-1.77-13.54-3.61-22.25-3.79c-1.08-0.02-2.21-0.01-3.44,0.03
						c-4.23,0.14-8.55,1.25-12.46,3.05v0.64c3.9-1.86,8.23-2.99,12.48-3.13c1.23-0.04,2.34-0.05,3.4-0.03
						c8.61,0.18,15.45,2,22.06,3.76c11.53,3.07,22.41,5.98,39.9-1.45c5.79-2.46,11.18-5.49,16.4-8.43
						c11.58-6.51,22.52-12.66,37.23-12.89c8.93-0.14,17.95,2.54,26.67,5.12c2.79,0.83,5.68,1.68,8.52,2.43
						c9.34,2.45,18.84,3.28,29.05,2.52c11.31-0.84,20.74-3.68,30.73-6.69c7.27-2.19,14.78-4.45,23.22-5.94
						c1.78-0.31,3.42-0.56,5.04-0.74c15.02-1.74,25.65,0.18,35.03,1.88c0.94,0.17,1.86,0.34,2.77,0.5c2.02,0.36,4.06,0.76,6.02,1.14
						c10.93,2.13,22.23,4.33,42.04,2.97c10.95-0.75,24.2-2.07,42.94-4.29c2.39-0.28,4.8-0.55,7.24-0.81
						c11.57-1.27,23.54-2.58,38.19-6.33c3.27-0.84,6.83-1.87,11.2-3.25c7.55-2.4,17-2.82,24.19,0.52V19z"/>
				</g>
				<g>
					<path class="st3" d="M445.04,30.36c-0.39-0.48-0.8-0.95-1.28-1.4c-7.78-7.37-20.48-6.61-29.78-3.44
						c-4.27,1.44-7.58,2.44-10.76,3.24c-13.06,3.3-23.71,3.92-34.01,4.52c-3.34,0.19-6.5,0.38-9.73,0.65
						c-14.61,1.23-26.63,2.44-37.23,3.51l-4.33,0.43c-18.37,1.84-29.01,0.7-39.3-0.4c-2-0.21-3.99-0.43-6.02-0.62
						c-2-0.19-4.06-0.44-6.25-0.71c-8.45-1.04-18.02-2.21-30.48-0.53c-1.57,0.21-3.16,0.49-4.88,0.85c-7.78,1.64-14.5,4.01-21,6.31
						c-9.51,3.36-18.5,6.54-30.14,7.32c-9.73,0.65-18.84-0.24-27.85-2.72c-3.02-0.84-6.08-1.8-9.05-2.73
						c-8.13-2.55-16.53-5.2-24.85-5.49c-14.71-0.52-25.85,4.68-37.63,10.17c-4.72,2.2-9.6,4.47-14.79,6.39
						c-16.71,6.19-27.1,4.26-38.09,2.21c-6.37-1.19-12.96-2.41-21.26-2.29c-1,0.01-2.08,0.06-3.31,0.14
						c-8.37,0.51-16.98,4.45-22.29,10.12v0.94c5.14-5.87,13.86-9.98,22.34-10.49c1.22-0.08,2.28-0.12,3.27-0.14
						c8.22-0.13,14.76,1.1,21.1,2.28c11.11,2.07,21.6,4.02,38.51-2.25c5.22-1.93,10.11-4.21,14.84-6.42
						c11.7-5.45,22.74-10.59,37.28-10.1c8.21,0.29,16.56,2.91,24.64,5.45c2.97,0.93,6.04,1.9,9.07,2.74
						c9.1,2.51,18.3,3.41,28.12,2.74c11.75-0.79,20.79-3.99,30.35-7.37c6.47-2.29,13.17-4.66,20.9-6.28
						c1.7-0.36,3.28-0.63,4.83-0.84c12.35-1.67,21.87-0.5,30.27,0.54c2.2,0.27,4.27,0.52,6.28,0.71c2.03,0.19,4.01,0.4,6.01,0.62
						c10.33,1.11,21.01,2.25,39.46,0.4l4.33-0.44c10.6-1.07,22.61-2.28,37.22-3.51c3.22-0.27,6.38-0.45,9.71-0.65
						c10.34-0.6,21.02-1.23,34.16-4.54c3.19-0.8,6.53-1.81,10.82-3.26c9.08-3.1,21.48-3.86,29.02,3.29
						c0.68,0.65,1.27,1.33,1.78,2.05V30.36z"/>
				</g>
				<g>
					<path class="st3" d="M445.04,48.9c-0.32-0.48-0.62-0.97-0.9-1.46c-0.78-1.34-1.43-2.75-2.06-4.11
						c-1.43-3.09-2.91-6.29-5.9-8.79c-9.47-7.94-23.32-4.11-28.83-2.09c-4.09,1.48-7.28,2.48-10.36,3.24
						c-12.09,3-21.83,3.01-31.25,3.03c-3.56,0.01-7.24,0.01-10.91,0.19c-14.1,0.68-27.26,1.85-40.23,3.59
						c-17.35,2.33-27.49,2.22-37.29,2.12c-1.82-0.02-3.63-0.04-5.48-0.04c-2.82-0.01-5.88-0.24-9.13-0.49
						c-7.52-0.57-16.04-1.22-26.3,0.38c-1.5,0.23-3.03,0.54-4.68,0.95c-7.2,1.78-13.21,4.28-19.02,6.69
						c-8.96,3.72-17.42,7.24-29.4,7.96c-9.33,0.56-18.14-0.4-26.91-2.94c-3.25-0.95-6.53-2.05-9.71-3.11
						c-7.43-2.49-15.12-5.07-22.67-5.75c-14.77-1.32-26.26,2.91-38.42,7.38c-4,1.47-8.13,2.99-12.5,4.36
						c-16.15,5.07-26.16,4.08-36.76,3.03c-6.1-0.61-12.42-1.23-20.31-0.81c-1.1,0.06-2.22,0.16-3.18,0.25
						c-8.52,0.8-17.18,4.74-22.61,10.29c-3.17,3.24-4.41,6.35-5.62,9.36c-0.95,2.36-1.84,4.6-3.6,6.8c-0.09,0.12-0.2,0.22-0.29,0.34
						v0.96c0.29-0.32,0.59-0.64,0.86-0.98c1.81-2.27,2.72-4.54,3.68-6.94c1.18-2.96,2.41-6.02,5.5-9.18
						C-4,67.74,4.7,63.78,12.92,63.02c0.94-0.09,2.06-0.19,3.14-0.24c7.84-0.41,14.12,0.21,20.19,0.81
						c10.68,1.06,20.77,2.06,37.07-3.06c4.38-1.37,8.52-2.9,12.53-4.37c12.07-4.45,23.48-8.64,38.07-7.34
						c7.46,0.68,15.1,3.24,22.5,5.71c3.18,1.07,6.48,2.17,9.74,3.12c8.86,2.56,17.75,3.54,27.18,2.97
						c12.11-0.73,20.63-4.26,29.65-8.01c5.79-2.41,11.77-4.89,18.91-6.66c1.62-0.4,3.13-0.7,4.61-0.93
						c10.17-1.58,18.64-0.94,26.12-0.37c3.26,0.25,6.34,0.48,9.19,0.49c1.85,0,3.66,0.02,5.47,0.04c9.84,0.1,20.01,0.21,37.41-2.12
						c12.95-1.74,26.09-2.91,40.16-3.59c3.65-0.18,7.16-0.18,10.87-0.19c9.47-0.01,19.26-0.03,31.44-3.05
						c3.1-0.77,6.32-1.77,10.43-3.27c5.39-1.97,18.9-5.72,28.08,1.97c2.89,2.42,4.28,5.42,5.75,8.59c0.63,1.37,1.29,2.79,2.08,4.15
						c0.46,0.8,0.97,1.57,1.51,2.34V48.9z"/>
				</g>
				<g>
					<path class="st3" d="M445.04,59.94c-3.06-2.44-5.66-5.15-7.68-8.07c-0.82-1.19-1.55-2.44-2.25-3.64
						c-1.76-3.01-3.42-5.85-6.52-8.13c-6.86-5.04-16.24-5.29-27.88-0.74c-3.79,1.48-6.96,2.51-9.95,3.24
						c-12.74,3.1-22.23,2.44-32.27,1.75c-2.68-0.19-5.46-0.38-8.27-0.49c-14.93-0.59-27.41,1.28-38.92,3.25
						c-17.54,3-27.21,3.92-37.45,4.9l-2.78,0.27c-3.38,0.33-7.23,0.18-11.32,0.03c-6.69-0.25-14.27-0.53-22.81,0.99
						c-1.45,0.26-2.92,0.6-4.48,1.05c-6.69,1.92-12.08,4.56-17.28,7.11c-8.31,4.07-16.16,7.91-28.41,8.55
						c-8.94,0.46-17.44-0.57-25.98-3.17c-3.53-1.08-7.09-2.36-10.53-3.6c-6.69-2.4-13.6-4.88-20.34-5.91
						c-15.36-2.32-27.12,0.9-40.74,4.62c-2.79,0.76-5.67,1.55-8.66,2.31C65,68.2,55.39,68.16,45.22,68.11
						c-5.87-0.03-11.95-0.05-19.5,0.66c-1.02,0.1-2.09,0.23-3.04,0.35c-8.12,1.03-16.61,4.72-22.16,9.62
						c-3.18,2.81-4.76,5.51-6.28,8.13c-1.25,2.14-2.42,4.16-4.4,6.14c-1.58,1.58-3.4,2.94-5.57,4.17c-1.11,0.62-2.3,1.18-3.54,1.68
						v0.62c1.38-0.55,2.7-1.15,3.92-1.84c2.23-1.25,4.09-2.65,5.71-4.27c2.03-2.03,3.22-4.08,4.49-6.25
						c1.51-2.58,3.06-5.25,6.17-7.99c5.45-4.81,13.79-8.43,21.77-9.45c0.94-0.12,2.01-0.25,3.02-0.35
						c7.51-0.71,13.56-0.68,19.42-0.66c10.22,0.05,19.88,0.09,35.49-3.87c3-0.76,5.88-1.55,8.68-2.31c13.53-3.7,25.22-6.9,40.41-4.6
						c6.66,1.01,13.24,3.37,20.2,5.87c3.45,1.24,7.01,2.52,10.56,3.61c8.63,2.62,17.21,3.67,26.25,3.2
						c12.41-0.65,20.33-4.53,28.71-8.63c5.18-2.54,10.53-5.16,17.16-7.06c1.53-0.44,2.97-0.78,4.4-1.03
						c8.46-1.51,15.99-1.23,22.64-0.98c4.11,0.15,7.99,0.3,11.42-0.03l2.78-0.27c10.26-0.98,19.94-1.9,37.51-4.91
						c11.46-1.96,23.9-3.83,38.75-3.24c2.81,0.11,5.57,0.3,8.25,0.49c10.11,0.7,19.66,1.36,32.51-1.77
						c3.03-0.74,6.23-1.78,10.05-3.27c11.38-4.45,20.51-4.23,27.15,0.65c3,2.2,4.63,4.99,6.36,7.95c0.71,1.21,1.44,2.46,2.28,3.67
						c2.15,3.12,4.95,6,8.26,8.56V59.94z"/>
				</g>
				<g>
					<path class="st3" d="M445.04,67.77c-5.75-3.02-10.71-6.93-14.46-11.48c-0.85-1.03-1.63-2.1-2.39-3.14
						c-2.04-2.79-3.97-5.43-7.19-7.49c-8.96-5.73-19.09-2.68-26.93,0.61c-3.61,1.52-6.65,2.55-9.55,3.24
						c-10.72,2.56-19.05,1.48-27.11,0.43c-3.8-0.49-7.73-1-11.87-1.13c-14-0.43-26.28,0.52-37.57,2.9
						c-9.05,1.91-15.82,3.44-21.78,4.78c-5.66,1.28-10.55,2.38-15.9,3.47c-3.74,0.76-8,0.75-12.92,0.73
						c-5.96-0.02-12.71-0.04-19.9,1.42c-1.39,0.28-2.83,0.67-4.27,1.15c-6.24,2.07-11.06,4.86-15.71,7.56
						c-7.6,4.4-14.79,8.56-27.26,9.12c-8.55,0.38-16.74-0.73-25.04-3.39c-3.89-1.26-7.79-2.77-11.56-4.23
						c-6.13-2.38-11.93-4.62-17.79-5.92c-17.13-3.77-30.28-1.26-46.91,1.92l-0.99,0.19c-14.47,2.76-23.5,3.65-33.06,4.58
						c-5.86,0.57-11.93,1.17-19.46,2.23c-0.82,0.12-1.66,0.25-2.52,0.4l-0.39,0.06c-7.86,1.29-15.97,4.63-21.71,8.94
						c-3.14,2.36-5.03,4.66-6.86,6.87c-1.58,1.92-3.07,3.73-5.28,5.49c-1.74,1.38-3.62,2.56-5.76,3.6
						c-3.58,1.74-7.88,2.9-12.19,3.94v0.59c4.41-1.06,8.83-2.24,12.53-4.04c2.18-1.06,4.11-2.27,5.88-3.68
						c2.26-1.8,3.78-3.64,5.38-5.58c1.8-2.19,3.67-4.46,6.75-6.77c5.65-4.24,13.64-7.54,21.39-8.81l0.39-0.06
						c0.85-0.14,1.68-0.28,2.5-0.39c7.51-1.06,13.57-1.65,19.43-2.23c9.57-0.94,18.62-1.82,33.13-4.59l0.99-0.19
						c16.55-3.16,29.62-5.66,46.59-1.93c5.81,1.29,11.58,3.52,17.68,5.88c3.78,1.46,7.69,2.98,11.6,4.24
						c8.39,2.69,16.67,3.81,25.32,3.43c12.66-0.56,19.92-4.77,27.61-9.22c4.62-2.68,9.4-5.44,15.57-7.5
						c1.42-0.47,2.83-0.85,4.18-1.12c7.1-1.45,13.82-1.43,19.74-1.41c4.76,0.02,9.26,0.03,13.08-0.75
						c5.36-1.09,10.25-2.2,15.92-3.48c5.96-1.35,12.73-2.87,21.77-4.78c11.23-2.37,23.46-3.31,37.38-2.88
						c4.1,0.13,8.01,0.63,11.79,1.12c8.13,1.06,16.54,2.15,27.4-0.45c2.95-0.7,6.02-1.74,9.67-3.28c7.65-3.22,17.55-6.21,26.21-0.67
						c3.12,2,5.02,4.59,7.02,7.34c0.76,1.04,1.55,2.12,2.41,3.16c3.88,4.7,9.03,8.73,15.01,11.82V67.77z"/>
				</g>
				<g>
					<path class="st3" d="M445.04,73.9c-8.01-2.72-15.44-7.3-21.24-13.17c-0.84-0.86-1.65-1.74-2.42-2.59
						c-2.36-2.59-4.59-5.04-7.96-6.9c-9.03-4.97-17.78-1.75-25.97,1.96c-3.47,1.57-6.29,2.57-9.15,3.24
						c-10.16,2.37-17.54,0.86-25.35-0.75c-3.81-0.78-7.75-1.59-12.03-1.91c-13.67-1.01-25.53-0.17-36.24,2.56
						c-10.99,2.8-18.25,5.41-25.26,7.93c-3.34,1.2-6.49,2.33-9.88,3.43c-3.96,1.27-8.86,1.41-14.06,1.55
						c-5.33,0.15-11.36,0.31-17.46,1.73c-1.34,0.31-2.71,0.73-4.07,1.25c-5.84,2.23-10.12,5.18-14.26,8.03
						c-6.86,4.73-13.33,9.19-25.98,9.65c-8.16,0.3-16.04-0.88-24.1-3.61c-4.37-1.49-8.71-3.32-12.9-5.09
						c-5.16-2.17-10.03-4.23-14.93-5.69c-16.72-4.98-30.15-4.73-46.39-2.71c-15.97,1.99-25.17,3.92-35.82,6.17
						c-4.43,0.93-9.01,1.9-14.42,2.94c-0.6,0.12-1.22,0.24-1.84,0.37l-0.93,0.19c-7.62,1.56-15.37,4.57-21.25,8.26
						c-3.04,1.91-5.18,3.77-7.25,5.57c-1.97,1.72-3.84,3.34-6.35,4.89c-1.9,1.18-3.85,2.17-5.94,3.03
						c-4.29,1.76-9.39,2.84-14.32,3.88c-2.17,0.46-4.39,0.93-6.51,1.45v0.59c2.13-0.53,4.35-1,6.68-1.49
						c4.97-1.05,10.1-2.13,14.45-3.92c2.13-0.88,4.11-1.89,6.05-3.08c2.56-1.58,4.44-3.22,6.43-4.96c2.05-1.78,4.17-3.63,7.17-5.51
						c5.81-3.65,13.47-6.63,21.01-8.17l0.93-0.19c0.62-0.13,1.23-0.25,1.83-0.37c5.42-1.04,10-2.01,14.44-2.94
						c10.64-2.24,19.82-4.17,35.76-6.16c16.14-2.01,29.48-2.26,46.06,2.68c4.86,1.46,9.71,3.5,14.85,5.67
						c4.21,1.77,8.56,3.61,12.96,5.11c8.16,2.76,16.13,3.95,24.39,3.65c12.88-0.47,19.44-4.99,26.38-9.78
						c4.1-2.83,8.35-5.75,14.11-7.95c1.33-0.5,2.66-0.91,3.97-1.22c6.02-1.4,12.01-1.56,17.3-1.71c5.25-0.14,10.21-0.28,14.28-1.59
						c3.41-1.1,6.57-2.23,9.91-3.43c7-2.52,14.24-5.12,25.19-7.91c10.63-2.71,22.4-3.54,35.99-2.53c4.23,0.31,8.14,1.12,11.93,1.89
						c7.56,1.55,15.37,3.15,25.7,0.74c2.91-0.68,5.78-1.69,9.29-3.29c8.01-3.63,16.56-6.78,25.28-1.99c3.28,1.8,5.47,4.21,7.8,6.77
						c0.78,0.86,1.59,1.75,2.44,2.61c5.94,6.01,13.55,10.68,21.76,13.43V73.9z"/>
				</g>
				<g>
					<path class="st3" d="M445.04,78.61c-0.87-0.14-1.74-0.3-2.6-0.48c-8.89-1.9-17.44-6.26-25.43-12.97
						c-0.78-0.66-1.54-1.32-2.29-1.98c-2.74-2.41-5.32-4.69-8.91-6.36c-9.37-4.36-17.32-0.46-25.01,3.31
						c-3.28,1.61-5.98,2.61-8.75,3.24c-9.64,2.2-16.48,0.23-23.72-1.86c-3.78-1.09-7.68-2.22-12.07-2.74
						c-13.5-1.62-24.6-0.92-34.92,2.21C291.1,64.07,284.29,67.59,277.7,71c-3.01,1.56-5.85,3.03-8.96,4.43
						c-4.06,1.83-9.28,2.13-14.82,2.44c-5.01,0.29-10.19,0.58-15.39,1.96c-1.3,0.34-2.6,0.8-3.87,1.35
						c-5.48,2.4-9.25,5.52-12.9,8.54c-6.08,5.03-11.83,9.79-24.62,10.16c-7.77,0.22-15.35-1.03-23.17-3.84
						c-5.03-1.82-9.96-4.11-14.73-6.32c-4.01-1.86-7.8-3.62-11.59-5.1c-16.03-6.2-29.03-8.38-44.88-7.53
						c-14.58,0.79-23.48,3.74-32.9,6.87c-4.62,1.53-9.4,3.12-15.08,4.54c-0.42,0.11-0.85,0.21-1.28,0.33
						c-0.45,0.11-0.9,0.23-1.36,0.35c-7.49,1.87-14.87,4.56-20.79,7.59c-2.81,1.43-5.07,2.84-7.25,4.19
						c-2.5,1.55-4.86,3.01-7.8,4.38c-2.07,0.96-4.08,1.77-6.13,2.46c-4.32,1.45-9.25,2.35-14.02,3.23c-3.06,0.56-5.96,1.1-8.72,1.76
						c-2.4,0.58-4.63,1.13-6.74,1.67v0.59c2.16-0.55,4.46-1.12,6.93-1.71c2.74-0.66,5.62-1.19,8.68-1.75
						c4.79-0.88,9.75-1.79,14.12-3.26c2.08-0.7,4.12-1.51,6.21-2.49c2.98-1.39,5.36-2.86,7.87-4.42c2.17-1.35,4.42-2.74,7.2-4.16
						c5.87-3,13.2-5.67,20.63-7.53c0.46-0.11,0.91-0.23,1.36-0.35c0.43-0.11,0.85-0.22,1.27-0.32c5.71-1.42,10.5-3.01,15.13-4.55
						c9.37-3.11,18.22-6.05,32.7-6.83c15.72-0.85,28.63,1.32,44.55,7.48c3.77,1.47,7.55,3.22,11.55,5.08
						c4.78,2.22,9.72,4.52,14.79,6.35c7.91,2.84,15.59,4.1,23.46,3.88c13.06-0.37,18.9-5.21,25.07-10.32
						c3.61-2.99,7.35-6.08,12.73-8.44c1.23-0.54,2.49-0.98,3.76-1.31c5.13-1.36,10.27-1.65,15.24-1.93
						c5.61-0.32,10.9-0.62,15.09-2.51c3.12-1.41,5.97-2.88,8.99-4.44c6.56-3.39,13.33-6.9,23.52-9.98
						c10.21-3.1,21.2-3.79,34.59-2.18c4.33,0.52,8.2,1.64,11.95,2.72c7.34,2.12,14.28,4.12,24.12,1.87c2.83-0.64,5.58-1.66,8.91-3.3
						c7.87-3.86,15.31-7.51,24.34-3.31c3.49,1.63,6.04,3.88,8.75,6.26c0.75,0.66,1.51,1.33,2.3,1.99
						c8.07,6.79,16.73,11.2,25.74,13.12c0.91,0.19,1.84,0.36,2.76,0.51V78.61z"/>
				</g>
				<g>
					<path class="st3" d="M445.04,81.99c-3.14-0.13-6.32-0.34-9.39-0.88c-10.43-1.81-19.07-7.11-25.43-11.53
						c-0.64-0.44-1.27-0.88-1.89-1.32c-3.21-2.26-6.24-4.39-10.11-5.89c-9.03-3.49-15.49,0.02-22.34,3.74
						c-0.57,0.31-1.14,0.62-1.72,0.93c-3.11,1.65-5.68,2.64-8.34,3.24c-9.16,2.04-15.48-0.37-22.18-2.92
						c-3.71-1.41-7.55-2.87-12.03-3.64c-13.13-2.23-23.8-1.64-33.59,1.86c-9.21,3.3-15.42,7.64-21.42,11.85
						c-2.88,2.02-5.6,3.93-8.63,5.72c-4.08,2.43-9.52,2.9-15.28,3.39c-4.51,0.39-9.17,0.78-13.63,2.13
						c-1.26,0.38-2.5,0.87-3.66,1.45c-5.13,2.57-8.42,5.88-11.59,9.07c-5.29,5.33-10.29,10.37-23.2,10.63
						c-7.41,0.15-14.66-1.18-22.23-4.06c-6-2.3-11.76-5.31-17.33-8.22c-2.58-1.35-5.02-2.63-7.47-3.83
						c-15.09-7.38-27.61-12.02-43.37-12.35c-13.92-0.3-22.4,3.66-31.38,7.84c-4.41,2.05-8.96,4.17-14.33,5.86l-0.55,0.17
						c-0.64,0.2-1.29,0.41-1.95,0.6c-8.19,2.45-14.84,4.71-20.32,6.91c-2.19,0.88-4.18,1.74-6.11,2.57
						c-3.41,1.47-6.64,2.86-10.4,4.11c-2.27,0.76-4.28,1.35-6.32,1.88c-4.31,1.11-9.01,1.84-13.56,2.55
						c-3.03,0.47-5.9,0.92-8.67,1.47c-5.33,1.04-9.95,2.04-14.11,3.03c-0.59,0.14-1.19,0.28-1.78,0.43v0.59
						c0.66-0.16,1.31-0.32,1.97-0.47c4.15-0.99,8.76-1.98,14.08-3.02c2.75-0.55,5.61-0.99,8.63-1.46c4.57-0.71,9.3-1.45,13.64-2.57
						c2.06-0.53,4.09-1.13,6.37-1.9c3.8-1.27,7.03-2.66,10.46-4.14c1.92-0.83,3.91-1.68,6.09-2.56c5.46-2.19,12.09-4.44,20.26-6.89
						c0.67-0.2,1.32-0.41,1.96-0.61l0.55-0.17c5.41-1.7,9.99-3.83,14.42-5.89c8.9-4.14,17.32-8.06,31.04-7.77
						c15.61,0.32,28.05,4.94,43.05,12.27c2.44,1.2,4.88,2.47,7.46,3.82c5.59,2.92,11.37,5.95,17.4,8.26
						c7.67,2.92,15.06,4.26,22.52,4.11c13.22-0.27,18.31-5.4,23.7-10.84c3.14-3.16,6.38-6.43,11.42-8.95
						c1.13-0.56,2.32-1.04,3.54-1.4c4.38-1.32,9-1.72,13.47-2.1c5.86-0.5,11.39-0.97,15.61-3.49c3.05-1.8,5.78-3.72,8.67-5.74
						c5.96-4.18,12.13-8.5,21.25-11.76c9.66-3.46,20.2-4.04,33.19-1.83c4.4,0.75,8.2,2.2,11.88,3.6c6.81,2.59,13.24,5.04,22.63,2.95
						c2.73-0.61,5.36-1.63,8.53-3.3c0.58-0.31,1.15-0.62,1.72-0.93c6.68-3.63,12.99-7.05,21.69-3.7c3.79,1.46,6.78,3.57,9.96,5.8
						c0.63,0.44,1.26,0.88,1.9,1.33c6.42,4.46,15.14,9.81,25.72,11.65c3.13,0.54,6.35,0.76,9.53,0.89V81.99z"/>
				</g>
				<g>
					<path class="st3" d="M445.04,84.5c-1.55-0.02-3.11,0-4.63,0.01c-3.82,0.04-7.76,0.09-11.55-0.41
						c-9.09-1.21-16.89-5.28-25.42-10.08l-0.63-0.35c-3.97-2.23-7.72-4.33-12.17-5.71c-8.81-2.74-14.38,0.69-20.27,4.31
						c-0.93,0.57-1.87,1.15-2.83,1.71c-2.9,1.68-5.35,2.67-7.94,3.23c-8.7,1.88-14.53-0.94-20.71-3.93
						c-3.62-1.75-7.36-3.56-11.9-4.58c-12.75-2.86-23.01-2.38-32.27,1.52c-8.18,3.44-13.76,8.56-19.16,13.51
						c-2.64,2.42-5.37,4.93-8.34,7.16c-4.03,3.04-9.61,3.68-15.51,4.36c-4.07,0.47-8.28,0.95-12.12,2.27
						c-1.23,0.42-2.39,0.95-3.46,1.55c-4.81,2.75-7.61,6.25-10.32,9.64c-4.5,5.62-8.74,10.94-21.74,11.07
						c-7,0.09-13.95-1.31-21.29-4.28c-7.56-3.08-14.57-7.36-21.35-11.5l-1.94-1.18c-13.14-7.99-25.55-15.53-41.86-17.17
						c-13.35-1.35-21.45,3.63-30.03,8.9c-4.15,2.54-8.43,5.18-13.42,7.1c-0.77,0.3-1.56,0.59-2.36,0.88
						c-6.2,2.2-13.14,4.25-19.85,6.24c-6.13,1.81-11.71,3.43-17.97,4.79c-2.36,0.51-4.49,0.94-6.51,1.3
						c-4.25,0.77-8.7,1.33-13.01,1.87c-3.04,0.38-5.91,0.75-8.72,1.18c-5.55,0.84-9.94,1.59-13.81,2.36
						c-3.52,0.69-7.39,1.46-11.24,2.52v0.6c3.89-1.08,7.82-1.87,11.39-2.57c3.87-0.77,8.25-1.52,13.78-2.36
						c2.8-0.43,5.67-0.79,8.7-1.17c4.31-0.54,8.77-1.11,13.05-1.88c2.03-0.37,4.17-0.79,6.54-1.31c6.28-1.37,11.88-2.98,18.03-4.8
						c6.72-1.99,13.67-4.05,19.89-6.25c0.81-0.29,1.6-0.59,2.38-0.89c5.05-1.95,9.37-4.6,13.54-7.16
						c8.47-5.2,16.47-10.11,29.55-8.79c16.13,1.62,28.47,9.12,41.54,17.07l1.93,1.18c6.8,4.16,13.83,8.45,21.45,11.55
						c7.43,3.01,14.47,4.43,21.59,4.34c13.36-0.14,17.7-5.57,22.3-11.32c2.67-3.35,5.44-6.81,10.14-9.49
						c1.03-0.58,2.15-1.09,3.33-1.5c3.76-1.29,7.92-1.77,11.95-2.24c6.01-0.69,11.68-1.34,15.87-4.5c2.99-2.25,5.73-4.76,8.38-7.2
						c5.35-4.91,10.89-10,18.96-13.39c9.11-3.83,19.21-4.3,31.79-1.48c4.45,1,8.15,2.79,11.73,4.52c6.3,3.05,12.25,5.93,21.22,3.99
						c2.67-0.58,5.18-1.6,8.15-3.31c0.96-0.56,1.91-1.14,2.84-1.71c5.74-3.53,11.16-6.87,19.64-4.24c4.38,1.36,8.09,3.44,12.03,5.65
						l0.63,0.35c8.6,4.84,16.47,8.94,25.7,10.17c3.85,0.5,7.83,0.46,11.66,0.42c1.52-0.02,3.07-0.03,4.62-0.01V84.5z"/>
				</g>
				<g>
					<path class="st3" d="M445.04,86.96c-3.99-0.48-8.07-0.24-12.04,0c-3.6,0.22-7.32,0.44-10.93,0.13c-7.97-0.7-15.22-4-22.24-7.2
						c-5.35-2.44-10.89-4.96-16.79-6.37c-8.71-2.08-13.56,1.36-18.69,5.01c-3.22,2.29-6.56,4.66-10.98,5.58
						c-8.26,1.74-13.63-1.49-19.32-4.89c-3.5-2.1-7.12-4.27-11.7-5.57c-12.55-3.56-22.1-3.2-30.95,1.17
						c-7.17,3.54-12.09,9.35-16.85,14.97c-2.53,2.99-5.15,6.08-8.08,8.81c-3.95,3.67-9.84,4.53-15.54,5.36
						c-4.97,0.72-10.1,1.47-14.05,4.05c-4.49,2.93-6.82,6.64-9.07,10.22c-3.86,6.15-7.19,11.46-20.26,11.5h-0.13
						c-16,0-30.2-9-41.99-17.81c-0.88-0.66-1.76-1.32-2.65-1.99c-11.29-8.49-22.96-17.27-37.69-20.01
						c-12.84-2.38-20.56,3.63-28.72,10c-3.87,3.02-7.87,6.14-12.47,8.29C68.67,115.33,46,117.47,26,119.37
						c-8.85,0.84-17.21,1.63-24.59,2.78c-7.85,1.22-14.97,2.55-20.69,5.53v0.67c5.69-3.07,12.86-4.41,20.81-5.65
						c7.36-1.15,15.71-1.94,24.54-2.78c20.06-1.9,42.8-4.06,58.14-11.22c4.67-2.18,8.7-5.33,12.6-8.37
						c8.03-6.26,15.63-12.18,28.12-9.86c14.56,2.7,26.16,11.43,37.39,19.88c0.88,0.67,1.77,1.33,2.65,1.99
						c11.88,8.88,26.21,17.96,42.44,17.96h0.13c13.48-0.04,17.06-5.75,20.86-11.8c2.22-3.53,4.51-7.18,8.89-10.04
						c3.82-2.49,8.87-3.23,13.75-3.94c5.81-0.85,11.82-1.72,15.92-5.54c2.96-2.75,5.59-5.85,8.13-8.86
						c4.72-5.57,9.6-11.33,16.64-14.81c8.67-4.28,18.04-4.62,30.39-1.12c4.48,1.27,8.06,3.41,11.52,5.49
						c5.82,3.48,11.31,6.78,19.87,4.98c4.58-0.96,7.97-3.37,11.25-5.7c4.99-3.55,9.71-6.89,18.07-4.9
						c5.83,1.39,11.33,3.9,16.65,6.32c7.07,3.22,14.39,6.55,22.49,7.26c3.67,0.32,7.42,0.1,11.05-0.12
						c3.97-0.24,8.05-0.48,11.99,0.01V86.96z"/>
				</g>
				<g>
					<path class="st3" d="M445.04,96.13c-4.11-0.75-8.29-0.87-12.35-0.98c-3.67-0.11-7.13-0.21-10.54-0.73
						c-7.31-1.12-13.7-4.42-20.47-7.91c-5.44-2.81-11.07-5.71-17.22-7.37c-8.94-2.41-14.3,1.04-19.97,4.69
						c-3.13,2.02-6.37,4.1-10.31,5.16c-1.62,0.43-3.07,0.71-4.42,0.83c-5.13,0.48-8.71-1.21-12.85-3.17
						c-0.91-0.43-1.85-0.87-2.83-1.3c-2.52-1.11-5.6-2.35-9.26-3.15c-7.42-1.63-13.29-2.06-18.48-1.34
						c-4.31,0.61-8.25,1.99-12.03,4.23c-2.98,1.77-5.72,4.08-8.64,7.29c-1.78,1.96-3.48,4.12-5.14,6.2
						c-3.08,3.88-6.26,7.89-10.16,11.1c-4.4,3.65-10.56,4.05-16.51,4.44c-4.68,0.31-9.1,0.6-12.66,2.35c-4.32,2.13-6.76,5.11-9.13,8
						c-4.08,4.98-7.94,9.68-20.82,10.29c-1.29,0.06-2.62,0.08-3.95,0.06c-15.04-0.24-28.22-7.7-39.13-14.97
						c-1.41-0.94-2.83-1.9-4.25-2.88l-2.22-1.51c-9.94-6.75-21.22-14.4-35.22-16.78c-12.27-2.09-19.81,3.43-27.78,9.26
						c-3.74,2.74-7.61,5.57-12.02,7.55c-15.03,6.7-37.02,8.75-56.43,10.57c-8.11,0.76-15.76,1.47-22.62,2.47
						c-8.01,1.18-17.98,2.64-24.6,7.89c-0.38,0.3-0.74,0.61-1.08,0.92c-0.44,0.4-0.84,0.82-1.24,1.24v0.93
						c0.54-0.62,1.11-1.22,1.73-1.78c0.34-0.31,0.69-0.6,1.05-0.89c6.47-5.13,16.33-6.58,24.25-7.74
						c6.83-0.99,14.48-1.71,22.58-2.47c19.46-1.82,41.52-3.88,56.67-10.63c4.47-2,8.37-4.86,12.14-7.62
						c7.85-5.74,15.26-11.17,27.2-9.13c13.84,2.35,25.05,9.96,34.93,16.67l2.22,1.51c1.43,0.97,2.84,1.94,4.26,2.88
						c11,7.33,24.3,14.85,39.54,15.09c1.35,0.02,2.69,0,4-0.06c13.21-0.63,17.34-5.66,21.34-10.53c2.32-2.83,4.72-5.76,8.92-7.83
						c3.43-1.69,7.77-1.98,12.37-2.28c6.08-0.4,12.36-0.81,16.93-4.6c3.94-3.25,7.15-7.28,10.25-11.19
						c1.65-2.07,3.35-4.22,5.11-6.17c2.87-3.16,5.57-5.44,8.49-7.17c3.7-2.19,7.55-3.54,11.75-4.13c5.09-0.7,10.87-0.28,18.19,1.33
						c3.6,0.78,6.63,2,9.12,3.1c0.97,0.43,1.9,0.87,2.81,1.3c4.24,2,7.91,3.73,13.25,3.24c1.4-0.13,2.89-0.41,4.55-0.85
						c4.05-1.09,7.34-3.2,10.51-5.25c5.53-3.56,10.74-6.92,19.35-4.6c6.07,1.64,11.67,4.52,17.08,7.31
						c6.52,3.36,13.26,6.84,20.7,7.98c3.46,0.53,7.11,0.63,10.64,0.74c4.08,0.12,8.28,0.24,12.38,1V96.13z"/>
				</g>
				<g>
					<path class="st3" d="M445.04,105.36c-4.14-0.98-8.31-1.49-12.36-1.99c-3.68-0.45-7.15-0.88-10.45-1.62
						c-6.68-1.51-12.53-4.92-18.72-8.53c-5.51-3.21-11.21-6.53-17.63-8.46c-9.28-2.79-15.26,0.74-21.59,4.48
						c-2.91,1.72-5.92,3.5-9.29,4.62c-1.69,0.56-3.02,0.93-4.21,1.18c-4.67,0.95-7.65-0.02-11.42-1.24c-0.9-0.29-1.83-0.6-2.84-0.89
						c-2.57-0.75-5.61-1.6-9.23-2.16c-5.77-0.88-12.48-1.62-18.6-0.4c-4.13,0.83-7.88,2.46-11.47,4.99
						c-2.69,1.91-5.18,4.38-7.85,7.79c-1.15,1.47-2.26,2.99-3.42,4.59c-3.4,4.68-6.91,9.52-11.67,13.01
						c-4.96,3.65-11.45,3.5-17.73,3.36c-4.07-0.09-7.91-0.18-11.01,0.82c-4.3,1.38-6.81,3.61-9.46,5.98
						c-4.26,3.79-8.67,7.72-21.11,8.87c-1.27,0.12-2.6,0.21-3.95,0.29c-15.61,0.85-29.02-5.74-40.08-12.29
						c-1.79-1.06-3.55-2.15-5.41-3.3l-2.35-1.45c-10.71-6.64-21.79-13.5-35.29-15.59c-11.68-1.82-19.02,3.2-26.8,8.5
						c-3.63,2.47-7.38,5.03-11.61,6.83c-14.87,6.32-36.24,8.27-55.1,10c-7.32,0.67-14.23,1.3-20.51,2.14
						c-7.65,1.05-17.18,2.36-23.62,6.97c-0.37,0.26-0.72,0.54-1.06,0.81c-4.1,3.34-6.38,7.66-8.46,11.92v1.5
						c0.04-0.08,0.08-0.16,0.11-0.23c2.2-4.55,4.48-9.24,8.82-12.78c0.33-0.27,0.68-0.53,1.03-0.79c6.3-4.51,15.72-5.81,23.29-6.84
						c6.26-0.84,13.17-1.47,20.48-2.14c18.92-1.73,40.36-3.69,55.34-10.06c4.29-1.82,8.07-4.4,11.73-6.89
						c7.65-5.22,14.88-10.14,26.25-8.38c13.35,2.07,24.36,8.89,35.01,15.49l2.35,1.46c1.87,1.15,3.63,2.25,5.42,3.31
						c11.16,6.61,24.71,13.26,40.52,12.4c1.36-0.07,2.7-0.17,3.98-0.29c12.69-1.18,17.39-5.36,21.53-9.05
						c2.6-2.32,5.06-4.51,9.21-5.84c2.98-0.95,6.75-0.87,10.75-0.78c6.11,0.14,13.03,0.29,18.19-3.5c4.83-3.55,8.37-8.43,11.8-13.14
						c1.16-1.6,2.26-3.11,3.41-4.58c2.63-3.36,5.08-5.79,7.72-7.67c3.51-2.47,7.17-4.07,11.19-4.88c5.99-1.2,12.62-0.47,18.32,0.4
						c3.57,0.55,6.59,1.39,9.13,2.13c1,0.29,1.93,0.59,2.82,0.88c3.73,1.21,6.95,2.26,11.82,1.27c1.22-0.25,2.59-0.63,4.3-1.2
						c3.45-1.15,6.49-2.95,9.43-4.69c6.18-3.66,12.02-7.11,20.97-4.41c6.33,1.91,12,5.21,17.47,8.4c6.25,3.64,12.14,7.07,18.93,8.61
						c3.33,0.75,6.83,1.18,10.53,1.64c4.08,0.5,8.29,1.02,12.46,2.02V105.36z"/>
				</g>
				<g>
					<path class="st3" d="M445.04,114.65c-3.87-1.1-7.74-1.96-11.49-2.79c-4.01-0.89-7.8-1.72-11.22-2.77
						c-6.06-1.86-11.38-5.35-17.01-9.05c-5.56-3.65-11.31-7.42-18-9.66c-9.78-3.27-16.87,0.66-23.72,4.47
						c-2.49,1.38-5.07,2.82-7.76,3.9c-1.37,0.55-2.78,1.11-4.01,1.52c-4.43,1.48-6.86,1.11-10.54,0.54
						c-0.72-0.11-1.48-0.23-2.31-0.34c-0.64-0.09-1.32-0.18-2.03-0.28c-2.1-0.3-4.47-0.64-7.16-0.88
						c-6.28-0.56-12.89-0.99-18.72,0.55c-3.99,1.05-7.56,2.94-10.9,5.76c-3.08,2.6-5.39,5.8-7.07,8.29c-0.66,0.99-1.33,2.01-2,3.04
						c-3.57,5.5-7.26,11.19-12.88,14.87c-5.65,3.69-12.87,2.81-19.23,2.03c-3.34-0.41-6.5-0.79-9.05-0.46
						c-4.58,0.6-7.3,2.26-10.46,4.18c-4.34,2.64-9.27,5.64-20.76,7.24c-1.32,0.18-2.63,0.35-3.95,0.52
						c-16.33,2.02-30.51-4.08-41.04-9.62c-2.15-1.13-4.28-2.33-6.54-3.6l-0.54-0.3c-0.98-0.56-1.96-1.11-2.94-1.67
						c-10.48-5.97-21.32-12.13-34.4-13.96c-11.1-1.55-18.26,2.96-25.85,7.74c-3.5,2.2-7.12,4.48-11.16,6.1
						c-14.69,5.9-35.39,7.75-53.65,9.39c-6.59,0.59-12.81,1.15-18.54,1.86c-7.28,0.91-16.35,2.03-22.65,6.05
						c-0.36,0.23-0.71,0.47-1.04,0.71c-4.42,3.19-6.92,7.38-9.34,11.44c-1.2,2.01-2.44,4.09-3.9,6.03c-0.77,1.03-1.6,1.98-2.45,2.9
						v0.93c1.07-1.09,2.07-2.26,3.02-3.52c1.48-1.97,2.73-4.06,3.93-6.08c2.5-4.19,4.86-8.15,9.18-11.26
						c0.33-0.23,0.66-0.46,1.01-0.69c6.16-3.93,15.13-5.05,22.34-5.94c5.72-0.71,11.93-1.27,18.51-1.86
						c18.31-1.64,39.07-3.5,53.87-9.44c4.1-1.65,7.75-3.94,11.27-6.16c7.47-4.7,14.53-9.14,25.33-7.64
						c12.93,1.81,23.23,7.67,34.13,13.87c0.98,0.56,1.96,1.12,2.95,1.67l0.54,0.3c2.26,1.27,4.39,2.47,6.55,3.61
						c10.63,5.59,24.96,11.75,41.5,9.7c1.32-0.16,2.64-0.33,3.96-0.52c11.65-1.62,16.86-4.79,21.05-7.34
						c3.08-1.88,5.75-3.5,10.17-4.08c2.45-0.32,5.56,0.06,8.85,0.46c6.5,0.8,13.87,1.7,19.75-2.14c5.74-3.75,9.46-9.49,13.06-15.04
						c0.67-1.03,1.33-2.05,1.99-3.04c1.65-2.46,3.94-5.61,6.96-8.17c3.26-2.76,6.74-4.6,10.62-5.62c5.7-1.5,12.24-1.08,18.44-0.53
						c2.66,0.24,5.03,0.58,7.12,0.88c0.72,0.1,1.4,0.2,2.04,0.29c0.82,0.11,1.58,0.23,2.3,0.34c3.66,0.56,6.3,0.97,10.91-0.57
						c1.25-0.42,2.67-0.99,4.05-1.54c2.73-1.1,5.33-2.54,7.84-3.94c7.01-3.89,13.64-7.57,23.09-4.41c6.6,2.2,12.31,5.95,17.84,9.58
						c5.67,3.72,11.04,7.24,17.2,9.14c3.45,1.06,7.26,1.9,11.29,2.79c3.81,0.84,7.74,1.72,11.67,2.84V114.65z"/>
				</g>
				<g>
					<path class="st3" d="M445.04,123.96c-2.11-0.68-4.21-1.34-6.29-2c-6.02-1.89-11.71-3.68-16.34-5.54
						c-5.46-2.19-10.26-5.72-15.33-9.47c-5.59-4.12-11.37-8.39-18.35-10.96c-10.58-3.89-18.75,0.53-26.66,4.81
						c-1.78,0.96-3.61,1.95-5.43,2.82c-0.88,0.42-1.69,0.82-2.44,1.2c-0.48,0.24-0.93,0.47-1.36,0.68
						c-4.7,2.29-6.57,2.36-11.07,2.52l-0.39,0.01c-1.74,0.06-3.8-0.01-6.19-0.09c-0.94-0.03-1.92-0.07-2.95-0.09l-0.19-0.01
						c-6.39-0.17-12.99-0.35-18.64,1.5c-3.91,1.28-7.19,3.36-10.33,6.53c-2.66,2.68-4.59,5.81-6.28,8.78l-0.84,1.49
						c-3.42,6.07-7.31,12.95-13.83,16.73c-6.52,3.77-14.58,1.84-21.05,0.28c-2.49-0.6-4.85-1.16-6.77-1.31
						c-5.5-0.42-8.52,0.76-13.11,2.55c-4.18,1.63-9.38,3.66-18.77,5.41c-1.31,0.25-2.63,0.49-3.94,0.75
						c-13.23,2.55-26.19,0.41-42-6.94c-2.34-1.09-4.63-2.25-7.37-3.66c-1.59-0.82-3.17-1.65-4.75-2.48
						c-10.76-5.65-20.91-10.99-33.65-12.58c-10.51-1.31-17.51,2.72-24.91,6.98c-3.37,1.94-6.86,3.94-10.7,5.39
						c-14.69,5.53-34.93,7.28-52.79,8.84c-5.64,0.49-10.97,0.95-15.97,1.51c-7.29,0.82-15.56,1.74-21.67,5.13
						c-0.35,0.2-0.69,0.4-1.02,0.6c-4.42,2.76-7.13,6.39-9.75,9.9c-1.24,1.66-2.52,3.37-3.96,4.99c-2.66,2.97-5.71,5.37-9.21,7.28
						v0.67c3.72-1.98,6.95-4.49,9.75-7.61c1.47-1.63,2.75-3.36,4-5.03c2.71-3.63,5.26-7.06,9.58-9.75c0.32-0.2,0.65-0.4,0.99-0.58
						c5.98-3.32,14.16-4.24,21.38-5.04c4.99-0.56,10.31-1.02,15.95-1.51c17.91-1.56,38.21-3.32,52.99-8.88
						c3.89-1.47,7.41-3.49,10.8-5.44c7.3-4.19,14.18-8.16,24.43-6.88c12.6,1.57,22.7,6.88,33.39,12.5c1.58,0.83,3.16,1.66,4.75,2.48
						c2.75,1.41,5.04,2.57,7.39,3.67c15.97,7.43,29.07,9.59,42.48,7c1.31-0.25,2.63-0.5,3.94-0.75c9.46-1.76,14.7-3.81,18.91-5.45
						c4.49-1.75,7.45-2.91,12.76-2.5c1.86,0.14,4.18,0.7,6.64,1.29c6.61,1.59,14.84,3.57,21.62-0.36
						c6.67-3.86,10.59-10.82,14.05-16.95l0.84-1.49c1.68-2.94,3.58-6.03,6.19-8.67c3.06-3.1,6.26-5.12,10.06-6.36
						c5.53-1.81,12.06-1.63,18.38-1.46l0.19,0c1.03,0.03,2.01,0.06,2.95,0.09c2.4,0.08,4.48,0.16,6.24,0.09l0.39-0.01
						c4.48-0.16,6.53-0.24,11.38-2.6c0.44-0.21,0.89-0.44,1.37-0.68c0.75-0.37,1.55-0.78,2.43-1.19c1.83-0.87,3.67-1.87,5.46-2.83
						c7.75-4.19,15.77-8.53,26.02-4.76c6.89,2.53,12.62,6.77,18.17,10.86c5.11,3.77,9.94,7.34,15.49,9.56
						c4.66,1.87,10.36,3.66,16.4,5.56c2.15,0.68,4.34,1.37,6.53,2.07V123.96z"/>
				</g>
				<g>
					<path class="st3" d="M445.04,133.31c-0.04-0.01-0.07-0.03-0.11-0.04c-7.56-2.67-15.95-6.22-22.44-9.51
						c-4.88-2.46-9.15-6.01-13.68-9.77c-5.6-4.64-11.38-9.45-18.67-12.38c-11.94-4.81-22.1,0.92-31.06,5.97l-1.62,0.91
						c-1.36,0.76-2.53,1.52-3.6,2.23l-0.85,0.57c-3.77,2.54-5.04,3.39-9.22,4.31c-2.35,0.52-5.51,0.66-9.09,0.79l-1.81,0.06
						c-5.92,0.19-12.04,0.38-17.14,2.38c-3.79,1.49-6.9,3.81-9.76,7.3c-2.38,2.9-4.09,6.31-5.5,9.28
						c-3.11,6.55-6.98,14.7-14.46,18.53c-7.62,3.9-16.58,0.44-23.12-2.08c-1.54-0.6-3-1.16-4.23-1.53
						c-7.42-2.27-11.04-1.26-19.77,1.17c-3.31,0.92-7.42,2.07-12.78,3.32c-1.38,0.32-2.67,0.64-3.94,0.98
						c-13.73,3.59-26.98,2.28-42.96-4.26c-2.39-0.98-4.79-2.07-7.67-3.41c-2.16-1.02-4.33-2.07-6.42-3.09
						c-10.58-5.16-20.57-10.04-33.04-11.39c-9.92-1.08-16.76,2.46-24,6.21c-3.23,1.67-6.58,3.41-10.21,4.67
						c-14.88,5.2-34.89,6.86-52.53,8.33c-4.49,0.37-8.73,0.73-12.79,1.12c-6.93,0.68-14.79,1.45-20.69,4.21
						c-0.34,0.16-0.67,0.33-1,0.5c-4.45,2.32-7.39,5.39-10.23,8.37c-1.25,1.31-2.54,2.66-3.96,3.94c-4.02,3.65-8.73,6.32-14.39,8.14
						c-0.52,0.17-1.06,0.32-1.59,0.47v0.6c0.62-0.17,1.23-0.35,1.83-0.54c5.76-1.85,10.55-4.56,14.64-8.28
						c1.43-1.3,2.73-2.66,3.99-3.97c2.94-3.07,5.71-5.97,10.06-8.24c0.31-0.16,0.64-0.33,0.97-0.48c5.78-2.71,13.23-3.44,20.43-4.15
						c4.05-0.4,8.29-0.75,12.78-1.12c17.7-1.47,37.75-3.14,52.73-8.37c3.68-1.29,7.05-3.03,10.31-4.72
						c7.13-3.69,13.87-7.18,23.56-6.13c12.33,1.34,22.27,6.19,32.79,11.32c2.09,1.02,4.26,2.08,6.43,3.1
						c2.88,1.35,5.3,2.45,7.7,3.43c16.14,6.61,29.54,7.93,43.46,4.3c1.27-0.33,2.55-0.65,3.92-0.97c5.37-1.26,9.49-2.41,12.81-3.33
						c8.82-2.46,12.12-3.38,19.32-1.17c1.2,0.37,2.65,0.93,4.18,1.52c6.68,2.58,15.83,6.1,23.76,2.05
						c7.68-3.93,11.59-12.18,14.74-18.8c1.4-2.94,3.08-6.32,5.43-9.17c2.8-3.4,5.81-5.66,9.5-7.11c4.98-1.96,11.03-2.15,16.88-2.33
						l1.81-0.06c3.62-0.13,6.81-0.27,9.23-0.8c4.32-0.95,5.72-1.89,9.47-4.42l0.85-0.57c1.05-0.7,2.21-1.46,3.55-2.21l1.62-0.91
						c8.81-4.97,18.8-10.6,30.39-5.93c7.19,2.89,12.93,7.66,18.49,12.27c4.56,3.78,8.86,7.35,13.8,9.85
						c6.52,3.29,14.94,6.86,22.52,9.54c0.12,0.04,0.25,0.09,0.37,0.13V133.31z"/>
				</g>
				<g>
					<path class="st3" d="M445.04,142.69c-0.2-0.08-0.41-0.15-0.6-0.23c-6.4-2.45-13.76-6.27-21.86-11.35
						c-4.29-2.69-8.05-6.2-12.04-9.92c-5.58-5.21-11.36-10.61-18.97-13.95c-12.73-5.58-25.09,0.83-33.28,6.14
						c-1.16,0.75-2.26,1.6-3.38,2.59c-1.32,1.18-2.26,2.19-3.09,3.07c-1.62,1.73-2.78,2.98-5.59,4.16c-2.4,1-5.76,1.43-9.04,1.75
						c-0.99,0.1-2,0.18-3.02,0.27c-5.59,0.47-11.36,0.96-16.05,3.12c-3.7,1.7-6.62,4.26-9.19,8.07c-1.99,2.94-3.31,6.17-4.71,9.78
						c-3.03,7.81-6.85,15.5-14.26,18.84c-9.06,4.09-19.27-1.79-25.37-5.31c-0.54-0.31-1.05-0.61-1.53-0.87
						c-9.94-5.59-13.95-4.45-33.19,1.01c-1.32,0.37-2.64,0.78-3.94,1.21c-14.23,4.68-27.77,4.19-43.92-1.59
						c-2.82-1.01-5.61-2.17-7.96-3.17c-2.71-1.16-5.39-2.37-7.98-3.55c-10.43-4.74-20.28-9.22-32.54-10.36
						c-9.35-0.87-16.04,2.19-23.13,5.44c-3.08,1.41-6.27,2.87-9.69,3.96c-15.46,4.94-35.66,6.51-53.48,7.89
						c-2.88,0.22-5.7,0.44-8.42,0.67l-0.32,0.03c-6.76,0.56-13.75,1.14-19.37,3.27c-0.33,0.13-0.66,0.26-0.98,0.39
						c-4.52,1.89-7.59,4.29-10.84,6.84c-1.22,0.95-2.47,1.94-3.81,2.89c-4.08,2.9-8.72,5.05-14.2,6.57
						c-2.71,0.75-5.6,1.33-8.55,1.84v0.58c3.02-0.52,5.98-1.11,8.76-1.88c5.56-1.54,10.28-3.72,14.43-6.67
						c1.35-0.96,2.61-1.95,3.84-2.91c3.21-2.51,6.25-4.89,10.68-6.74c0.31-0.13,0.63-0.26,0.95-0.38
						c5.53-2.09,12.46-2.66,19.16-3.22l0.33-0.03c2.72-0.23,5.53-0.44,8.41-0.67c17.86-1.38,38.11-2.95,53.66-7.92
						c3.46-1.1,6.67-2.57,9.77-4c6.99-3.2,13.58-6.22,22.73-5.37c12.12,1.12,21.92,5.58,32.29,10.29c2.6,1.18,5.28,2.4,8,3.56
						c2.37,1.01,5.17,2.17,8.01,3.19c16.32,5.84,30.02,6.34,44.43,1.6c1.29-0.42,2.6-0.83,3.91-1.2c18.98-5.39,22.93-6.51,32.6-1.08
						c0.47,0.26,0.98,0.56,1.52,0.87c6.23,3.59,16.65,9.59,26.08,5.34c7.61-3.44,11.51-11.24,14.58-19.16
						c1.39-3.58,2.7-6.78,4.66-9.67c2.51-3.71,5.35-6.2,8.93-7.85c4.57-2.1,10.28-2.58,15.8-3.05c1.02-0.09,2.03-0.17,3.03-0.27
						c3.34-0.32,6.77-0.76,9.26-1.8c2.94-1.23,4.15-2.53,5.82-4.32c0.82-0.88,1.75-1.87,3.05-3.03c1.1-0.98,2.18-1.8,3.3-2.53
						c8.04-5.22,20.17-11.52,32.56-6.09c7.51,3.29,13.24,8.65,18.79,13.82c4.01,3.74,7.79,7.28,12.13,10
						c8.14,5.1,15.53,8.94,21.98,11.41c0.28,0.11,0.58,0.22,0.89,0.33V142.69z"/>
				</g>
				<g>
					<path class="st3" d="M445.04,152.09c-0.36-0.14-0.72-0.28-1.1-0.43c-7.87-3.25-15.51-8.76-21.27-13.19
						c-3.7-2.84-6.95-6.27-10.4-9.9c-5.55-5.85-11.3-11.9-19.28-15.7c-12-5.71-25.37-0.95-33.88,5.41
						c-1.18,0.87-2.21,1.84-3.16,2.95c-1.43,1.67-2.26,3.19-2.98,4.52c-1.04,1.92-1.94,3.57-4.3,5.07c-2.39,1.52-5.89,2.22-9,2.7
						c-1.29,0.2-2.61,0.38-3.95,0.56c-5.34,0.72-10.86,1.46-15.23,3.77c-3.61,1.91-6.35,4.72-8.62,8.83
						c-1.75,3.17-2.84,6.72-3.89,10.15l-0.04,0.12c-2.04,6.64-5.72,15.86-14.05,19.15c-7.42,2.94-16.08,0.08-26.46-8.74
						c-9.68-8.23-15.37-8.64-33.82-2.48c-1.3,0.43-2.62,0.92-3.93,1.44c-14.71,5.83-28.55,6.16-44.88,1.09
						c-2.37-0.74-4.99-1.67-8.26-2.93c-3.22-1.25-6.38-2.59-9.44-3.9c-10.31-4.38-20.05-8.52-32.14-9.44
						c-8.81-0.67-15.37,1.92-22.31,4.67c-2.91,1.15-5.93,2.34-9.1,3.25c-17.01,4.89-39.39,6.38-57.37,7.58l-2.13,0.14
						c-6.1,0.4-12.4,0.82-17.68,2.31c-0.32,0.09-0.64,0.19-0.95,0.28c-4.73,1.47-8.17,3.35-11.8,5.35
						c-1.08,0.59-2.17,1.19-3.32,1.79c-4.11,2.15-8.7,3.78-14.02,4.99c-3.71,0.84-7.79,1.49-11.74,2.12
						c-1.26,0.2-2.52,0.4-3.78,0.61v0.58c1.3-0.22,2.61-0.42,3.9-0.63c3.96-0.63,8.05-1.28,11.79-2.13
						c5.39-1.23,10.04-2.88,14.21-5.06c1.15-0.6,2.25-1.2,3.33-1.8c3.6-1.98,7.01-3.85,11.67-5.29c0.31-0.09,0.62-0.19,0.93-0.28
						c5.2-1.46,11.47-1.88,17.52-2.28l2.13-0.14c18.02-1.2,40.44-2.69,57.53-7.61c3.21-0.92,6.24-2.12,9.17-3.28
						c6.86-2.71,13.35-5.26,21.96-4.61c11.96,0.91,21.64,5.03,31.89,9.38c3.07,1.3,6.23,2.65,9.47,3.91
						c3.28,1.27,5.92,2.2,8.31,2.95c16.52,5.13,30.52,4.79,45.41-1.11c1.3-0.51,2.61-0.99,3.89-1.42
						c19.2-6.42,24.04-5.34,33.09,2.35c10.61,9.02,19.52,11.91,27.23,8.86c8.59-3.4,12.34-12.77,14.42-19.52l0.04-0.12
						c1.05-3.41,2.13-6.93,3.85-10.05c2.21-4.01,4.87-6.74,8.37-8.59c4.25-2.25,9.71-2.98,14.98-3.69c1.35-0.18,2.68-0.36,3.97-0.56
						c3.18-0.5,6.78-1.22,9.28-2.81c2.5-1.58,3.43-3.3,4.51-5.28c0.71-1.31,1.52-2.8,2.92-4.43c0.92-1.08,1.93-2.01,3.06-2.86
						c8.34-6.23,21.41-10.9,33.1-5.34c7.87,3.74,13.57,9.75,19.08,15.56c3.46,3.65,6.73,7.09,10.47,9.96
						c5.8,4.46,13.48,10,21.43,13.29c0.48,0.2,0.94,0.38,1.4,0.55V152.09z"/>
				</g>
				<g>
					<path class="st3" d="M445.04,161.5c-0.52-0.2-1.05-0.42-1.6-0.66c-7.81-3.46-15.16-9.85-20.7-15.04
						c-3.1-2.9-5.84-6.18-8.75-9.65c-5.51-6.57-11.2-13.36-19.58-17.68c-11.89-6.12-26.35-2.28-34.48,4.67
						c-1.15,0.98-2.14,2.09-2.94,3.31c-1.33,2.02-1.88,3.88-2.42,5.69c-0.7,2.35-1.31,4.39-3.46,6.26c-1.85,1.61-4.53,2.7-8.97,3.66
						c-1.51,0.33-3.06,0.61-4.69,0.9c-5.16,0.94-10.49,1.9-14.61,4.37c-3.53,2.12-6.09,5.17-8.05,9.6
						c-1.39,3.18-2.2,6.66-2.98,10.03l-0.17,0.74c-2.47,10.6-7.13,17.15-13.85,19.47c-11.79,4.06-22.91-7.63-26.05-11.31
						c-8.69-10.22-15.39-13.31-34.43-5.96c-1.29,0.5-2.61,1.06-3.92,1.67c-15.37,7.12-29.08,8.24-45.85,3.76
						c-2.53-0.68-5.33-1.55-8.56-2.69c-3.71-1.31-7.32-2.75-10.81-4.14c-10.22-4.08-19.87-7.93-31.83-8.63
						c-8.3-0.48-15.07,1.75-21.63,3.9c-2.7,0.89-5.49,1.81-8.38,2.54c-17.96,4.54-40.01,6.03-55.04,6.76l-2.23,0.1
						c-5.27,0.24-10.71,0.49-15.48,1.35c-0.31,0.06-0.62,0.12-0.93,0.18c-5.41,1.07-9.59,2.5-14.01,4.02l-1.56,0.53
						c-4.05,1.38-8.58,2.5-13.85,3.42c-2.01,0.35-4.05,0.67-6.21,1.01c-5.52,0.87-11.14,1.75-16.28,3.17v0.6
						c5.15-1.44,10.82-2.34,16.4-3.21c2.16-0.34,4.21-0.66,6.22-1.01c5.31-0.93,9.88-2.06,13.97-3.45l1.56-0.53
						c4.59-1.57,8.56-2.93,13.91-3.99c0.3-0.06,0.61-0.12,0.92-0.17c4.72-0.85,10.14-1.1,15.38-1.34l2.23-0.1
						c15.06-0.73,37.17-2.22,55.2-6.78c2.91-0.74,5.72-1.66,8.43-2.55c6.79-2.23,13.2-4.34,21.33-3.86
						c11.84,0.69,21.43,4.52,31.59,8.57c3.5,1.4,7.12,2.84,10.84,4.15c3.25,1.14,6.07,2.02,8.62,2.7
						c16.96,4.53,30.83,3.39,46.38-3.81c1.3-0.6,2.6-1.16,3.88-1.65c18.33-7.07,24.74-4.63,33.6,5.78
						c3.2,3.77,14.6,15.73,26.85,11.51c6.94-2.39,11.74-9.08,14.26-19.88l0.17-0.74c0.78-3.35,1.58-6.8,2.95-9.94
						c1.91-4.32,4.39-7.29,7.81-9.34c4-2.4,9.27-3.35,14.36-4.28c1.57-0.28,3.19-0.58,4.71-0.91c4.57-0.98,7.35-2.12,9.29-3.81
						c2.28-1.98,2.94-4.18,3.63-6.52c0.53-1.77,1.07-3.6,2.36-5.55c0.77-1.18,1.73-2.25,2.83-3.19c7.75-6.63,22.18-10.48,33.64-4.58
						c8.26,4.25,13.92,11,19.38,17.52c2.92,3.48,5.68,6.77,8.8,9.7c5.57,5.22,12.98,11.66,20.88,15.16
						c0.65,0.29,1.29,0.54,1.91,0.77V161.5z"/>
				</g>
				<g>
					<path class="st3" d="M445.04,170.91c-0.68-0.25-1.38-0.53-2.09-0.87c-6.02-2.84-12.79-8.52-20.12-16.88
						c-2.49-2.84-4.73-5.88-7.1-9.1c-5.44-7.4-11.06-15.05-19.89-19.95c-11.83-6.57-27.69-3.27-35.07,3.93
						c-1.12,1.09-2.03,2.33-2.71,3.67c-1.15,2.29-1.45,4.54-1.74,6.71c-0.36,2.73-0.7,5.3-2.74,7.6c-1.75,1.97-4.51,3.4-8.96,4.61
						c-1.7,0.46-3.52,0.88-5.29,1.28c-5.02,1.14-10.21,2.31-14.13,4.94c-3.48,2.34-5.86,5.63-7.48,10.37
						c-1.07,3.16-1.62,6.57-2.15,9.86l-0.23,1.4c-1.24,7.54-4.61,17.09-13.65,19.78c-10.32,3.07-20.26-5.56-25.64-13.88
						c-8.1-12.53-16.08-17.75-35.02-9.44c-1.29,0.56-2.6,1.2-3.92,1.9c-15.81,8.36-29.81,10.29-46.81,6.44
						c-2.7-0.61-5.6-1.41-8.86-2.45c-4.18-1.33-8.2-2.84-12.09-4.3c-10.15-3.82-19.74-7.42-31.62-7.89
						c-7.88-0.31-14.67,1.45-21.23,3.15c-2.39,0.62-4.86,1.26-7.37,1.8c-15.26,3.28-33.6,5.36-51.62,5.86
						c-1.62,0.04-3.25,0.08-4.87,0.11c-3.97,0.08-8.07,0.15-11.84,0.44l-0.9,0.07c-5.64,0.46-10.43,1.05-16.03,1.97
						c-4.35,0.72-8.96,1.28-13.69,1.84c-10.91,1.29-22.06,3.01-29.45,8.05v0.74c7.24-5.18,18.51-6.92,29.55-8.23
						c4.74-0.56,9.36-1.13,13.73-1.85c5.57-0.92,10.35-1.5,15.96-1.96l0.9-0.07c3.75-0.28,7.84-0.36,11.8-0.43
						c1.63-0.03,3.26-0.06,4.88-0.11c18.07-0.5,36.45-2.59,51.76-5.88c2.53-0.54,5.01-1.19,7.41-1.81c6.81-1.77,13.23-3.44,21-3.13
						c11.76,0.46,21.29,4.05,31.38,7.84c3.9,1.47,7.93,2.98,12.12,4.32c3.28,1.04,6.19,1.84,8.92,2.46
						c17.2,3.9,31.37,1.95,47.35-6.51c1.3-0.69,2.6-1.32,3.87-1.87c18.46-8.09,26.23-3,34.12,9.21c5.5,8.52,15.74,17.34,26.46,14.15
						c9.37-2.79,12.83-12.54,14.09-20.24l0.23-1.4c0.53-3.27,1.07-6.66,2.13-9.78c1.58-4.62,3.88-7.82,7.25-10.08
						c3.8-2.55,8.93-3.71,13.88-4.83c1.77-0.4,3.61-0.82,5.32-1.29c3.09-0.85,6.93-2.16,9.29-4.81c2.14-2.41,2.49-5.06,2.87-7.87
						c0.28-2.13,0.58-4.34,1.69-6.55c0.65-1.29,1.52-2.47,2.6-3.52c7.2-7.02,22.65-10.23,34.19-3.83
						c8.71,4.83,14.29,12.43,19.69,19.77c2.27,3.09,4.62,6.28,7.13,9.14c7.39,8.42,14.23,14.16,20.33,17.04
						c0.83,0.39,1.64,0.72,2.43,1V170.91z"/>
				</g>
				<g>
					<path class="st3" d="M445.04,180.33c-0.84-0.29-1.7-0.65-2.59-1.1c-8.59-4.3-16.53-14.52-19.55-18.72
						c-1.89-2.63-3.7-5.46-5.44-8.19c-5.34-8.36-10.86-17.01-20.2-22.59c-10.95-6.54-28.29-4.99-35.67,3.19
						c-1.09,1.2-1.92,2.56-2.48,4.03c-0.96,2.53-1,5.13-1.04,7.64c-0.05,3.23-0.09,6.29-2.03,9.03c-1.67,2.35-4.42,4.07-8.95,5.57
						c-1.83,0.6-3.81,1.14-5.73,1.66c-4.93,1.33-10.04,2.71-13.8,5.5c-3.44,2.57-5.64,6.11-6.9,11.13
						c-0.78,3.13-1.09,6.45-1.39,9.66c-0.07,0.7-0.13,1.4-0.2,2.09c-0.5,5.15-2.82,17.41-13.45,20.1
						c-11.06,2.83-20.51-7.1-25.24-16.46c-4.76-9.41-9.87-14.6-16.08-16.32c-5.44-1.5-11.83-0.39-19.53,3.4
						c-1.24,0.61-2.56,1.33-3.91,2.13c-16.18,9.66-30.47,12.38-47.78,9.11c-2.88-0.54-5.87-1.26-9.15-2.2
						c-4.62-1.32-9.02-2.89-13.28-4.41c-10.11-3.6-19.66-7-31.5-7.22c-7.81-0.14-14.93,1.2-21.82,2.49
						c-1.78,0.33-3.57,0.67-5.38,0.98c-12.09,2.09-30.23,4.89-48.19,4.96c-5.23,0.02-10.63-0.17-15.71-0.37l-0.88-0.03
						c-1.83-0.07-3.59-0.15-5.33-0.24c-3.79-0.18-7.37-0.35-11.15-0.37c-4.03-0.02-8.74-0.02-13.54,0.25
						c-9.78,0.56-22.81,2.84-29.33,10.47c-4.59,5.38-4.89,12.34-5.18,19.07c-0.2,4.57-0.4,9.25-1.91,13.55v1.8
						c2.12-4.82,2.36-10.14,2.58-15.34c0.3-6.95,0.58-13.51,5.06-18.76c6.37-7.46,19.19-9.68,28.83-10.24
						c4.77-0.27,9.46-0.27,13.48-0.25c3.76,0.02,7.33,0.19,11.11,0.37c1.74,0.08,3.51,0.17,5.34,0.24l0.88,0.03
						c5.09,0.2,10.49,0.39,15.75,0.37c18.02-0.08,36.21-2.88,48.32-4.98c1.81-0.31,3.6-0.65,5.39-0.99
						c7.17-1.35,13.93-2.62,21.66-2.48c11.7,0.21,21.2,3.59,31.25,7.17c4.27,1.52,8.68,3.09,13.32,4.42
						c3.31,0.95,6.32,1.67,9.22,2.22c17.52,3.31,31.97,0.55,48.32-9.2c1.33-0.79,2.63-1.5,3.86-2.1c7.52-3.71,13.73-4.8,18.97-3.35
						c6.01,1.66,10.99,6.75,15.67,16c4.84,9.57,14.57,19.72,26.06,16.78c11.03-2.79,13.42-15.33,13.93-20.59
						c0.07-0.69,0.14-1.39,0.2-2.1c0.3-3.19,0.6-6.5,1.38-9.59c1.24-4.9,3.36-8.34,6.69-10.83c3.66-2.71,8.69-4.07,13.56-5.38
						c1.93-0.52,3.93-1.06,5.77-1.67c3.14-1.05,7.04-2.66,9.28-5.81c2.03-2.87,2.08-6,2.13-9.31c0.04-2.47,0.07-5.02,1.01-7.48
						c0.53-1.41,1.33-2.7,2.37-3.85c7.17-7.96,24.06-9.45,34.74-3.07c9.21,5.5,14.69,14.09,20,22.4c1.75,2.74,3.56,5.57,5.46,8.22
						c3.78,5.26,11.38,14.7,19.78,18.91c1,0.5,1.98,0.91,2.94,1.22V180.33z"/>
				</g>
				<g>
					<path class="st3" d="M445.04,189.68c-8.78-2.8-17.51-14.04-22.07-21.82c-1.31-2.23-2.58-4.56-3.82-6.82
						c-5.19-9.51-10.57-19.34-20.48-25.69c-7.18-4.6-18.23-6-26.87-3.4c-6.17,1.85-10.31,5.49-11.64,10.24
						c-0.77,2.76-0.55,5.68-0.34,8.5c0.28,3.76,0.55,7.31-1.32,10.52c-2.77,4.77-8.78,6.64-15.14,8.62
						c-4.84,1.51-9.85,3.06-13.45,6.01c-6.6,5.41-6.83,13.65-7.06,21.63c-0.02,0.85-0.05,1.69-0.08,2.52
						c-0.16,4.16-1.59,17.92-13.25,20.41c-11.65,2.49-20.67-8.7-24.85-19.04c-4.69-11.61-10.57-18.14-17.97-19.99
						c-6.3-1.57-13.75,0.43-22.12,5.96c-19.47,12.84-35.79,15.6-58.2,9.83c-5.03-1.29-9.78-2.9-14.38-4.46
						c-10-3.39-19.46-6.59-31.12-6.59c-0.11,0-0.23,0-0.34,0c-11.71,0.06-23.03,1.59-33.98,3.08c-16.64,2.25-33.84,4.58-52.14,1.57
						c-2.97-0.49-5.98-1.08-8.89-1.66c-6.96-1.38-14.15-2.8-21.42-2.87c-9.33-0.07-21.29,2.73-26.64,10.88
						c-3.71,5.65-3.29,12.39-2.88,18.91c0.42,6.72,0.86,13.68-3.36,19.24c-0.52,0.69-1.12,1.32-1.75,1.94h0.9
						c0.5-0.52,0.98-1.06,1.42-1.63c4.33-5.72,3.89-12.76,3.46-19.58c-0.4-6.44-0.82-13.1,2.8-18.61
						c5.13-7.82,16.53-10.59,25.65-10.59c0.13,0,0.26,0,0.39,0c7.19,0.06,14.35,1.48,21.27,2.85c2.92,0.58,5.93,1.18,8.91,1.66
						c18.42,3.02,35.69,0.69,52.38-1.57c10.92-1.48,22.22-3.01,33.87-3.07c0.11,0,0.22,0,0.34,0c11.53,0,20.93,3.18,30.87,6.55
						c4.61,1.56,9.38,3.18,14.43,4.48c22.36,5.76,39.4,2.88,58.82-9.93c8.19-5.4,15.43-7.37,21.51-5.86
						c7.18,1.79,12.91,8.21,17.52,19.62c4.27,10.57,13.55,22,25.66,19.41c12.12-2.59,13.6-16.69,13.76-20.94
						c0.03-0.83,0.06-1.68,0.08-2.53c0.23-7.86,0.46-15.99,6.86-21.23c3.5-2.87,8.43-4.4,13.21-5.89c6.5-2.02,12.63-3.93,15.52-8.91
						c1.94-3.35,1.66-7.14,1.38-10.81c-0.21-2.78-0.42-5.66,0.33-8.34c1.27-4.56,5.25-8.05,11.2-9.83
						c8.44-2.53,19.23-1.17,26.23,3.32c9.78,6.27,15.12,16.03,20.28,25.47c1.23,2.26,2.51,4.59,3.82,6.83
						c1.35,2.29,11.41,18.91,22.67,22.24V189.68z"/>
				</g>
			</g>
			<g>
				<g>
					<path class="st3" d="M445.04,3.14c-3.91-0.08-7.79,0.39-11.27,1.35c-102.43,28.41-129.23,19.16-152.87,11
						c-12.69-4.38-24.67-8.52-46.68-6.68c-12.56,1.05-23.98,3.53-35.03,5.94c-19.83,4.32-38.56,8.4-60.31,3.17
						c-2.54-0.61-5.14-1.3-7.65-1.96c-10.02-2.66-20.39-5.4-30.91-4.33c-15.81,1.61-27.48,10.34-38.76,18.79
						c-5.83,4.36-11.85,8.87-18.31,12.26c-18.06,9.49-28.97,5.02-41.6-0.15c-6.39-2.62-12.95-5.3-20.92-6.45v1.15
						c7.7,1.15,14.1,3.77,20.33,6.32c12.45,5.1,24.21,9.93,42.92,0.1c6.56-3.45,12.63-7.99,18.49-12.38
						c11.13-8.33,22.64-16.94,38.03-18.51c10.24-1.04,20.46,1.67,30.34,4.29c2.52,0.67,5.12,1.36,7.68,1.97
						c22.1,5.32,41.01,1.2,61.02-3.16c10.99-2.39,22.36-4.87,34.82-5.91c21.67-1.8,33.5,2.28,46.03,6.6
						c23.86,8.24,50.91,17.57,153.81-10.97c3.34-0.93,7.09-1.38,10.84-1.3V3.14z"/>
				</g>
				<g>
					<path class="st3" d="M445.04,86.67c-4-0.47-8.09-0.24-12.07,0c-3.59,0.22-7.3,0.44-10.87,0.13c-7.9-0.7-15.13-3.98-22.11-7.16
						c-5.37-2.44-10.92-4.97-16.86-6.39c-8.89-2.13-14.03,1.53-19,5.06c-3.19,2.27-6.5,4.61-10.84,5.53
						c-8.11,1.7-13.17-1.33-19.04-4.85c-3.52-2.11-7.17-4.29-11.79-5.6c-12.65-3.59-22.28-3.22-31.23,1.2
						c-7.23,3.57-12.17,9.4-16.95,15.05c-2.53,2.98-5.14,6.07-8.06,8.78c-3.87,3.59-9.44,4.41-15.34,5.27
						c-5.01,0.73-10.18,1.49-14.2,4.11c-4.55,2.97-6.9,6.7-9.16,10.31c-3.81,6.07-7.1,11.31-19.97,11.35
						c-15.98,0.02-30.12-8.94-41.89-17.74l-2.64-1.99c-11.32-8.52-23.03-17.32-37.85-20.07c-13.01-2.41-21.15,3.93-29.03,10.07
						c-3.85,3.01-7.84,6.11-12.41,8.25c-15.16,7.09-37.79,9.23-57.76,11.12c-8.86,0.84-17.22,1.63-24.61,2.78
						c-7.81,1.22-14.89,2.53-20.63,5.47v1.35c5.67-3.11,12.88-4.46,20.87-5.71c7.35-1.15,15.69-1.94,24.52-2.77
						c20.09-1.9,42.86-4.06,58.26-11.26c4.71-2.2,8.75-5.36,12.67-8.41c7.97-6.21,15.49-12.08,27.81-9.8
						c14.47,2.68,26.04,11.39,37.24,19.81l2.65,1.99c11.93,8.92,26.32,18.03,42.66,18.03h0.14c13.68-0.04,17.31-5.83,21.16-11.95
						c2.2-3.51,4.48-7.13,8.8-9.95c3.75-2.45,8.76-3.18,13.61-3.88c5.87-0.86,11.94-1.74,16.12-5.63c2.97-2.76,5.61-5.87,8.16-8.88
						c4.7-5.55,9.56-11.28,16.53-14.73c8.58-4.23,17.86-4.57,30.11-1.1c4.43,1.26,7.99,3.39,11.43,5.45
						c5.88,3.52,11.44,6.85,20.15,5.03c4.65-0.98,8.08-3.41,11.39-5.76c4.92-3.5,9.57-6.8,17.76-4.84
						c5.79,1.38,11.28,3.88,16.59,6.3c7.1,3.23,14.45,6.57,22.62,7.29c3.7,0.33,7.47,0.1,11.11-0.12c3.96-0.24,8.04-0.48,11.97,0.01
						V86.67z"/>
				</g>
				<g>
					<path class="st3" d="M445.04,189.39c-8.62-2.8-17.25-13.95-21.76-21.65c-1.31-2.23-2.58-4.56-3.81-6.81
						c-5.21-9.54-10.6-19.4-20.58-25.79c-7.26-4.65-18.44-6.07-27.19-3.45c-6.29,1.89-10.5,5.59-11.85,10.44
						c-0.78,2.8-0.56,5.74-0.35,8.58c0.28,3.72,0.54,7.24-1.28,10.38c-2.71,4.67-8.66,6.52-14.96,8.48
						c-4.87,1.52-9.91,3.08-13.56,6.08c-6.7,5.49-6.94,13.79-7.17,21.82c-0.02,0.85-0.05,1.69-0.08,2.52
						c-0.16,4.11-1.57,17.7-13,20.15c-11.44,2.44-20.31-8.63-24.45-18.86c-4.73-11.7-10.68-18.3-18.2-20.17
						c-6.42-1.6-13.96,0.43-22.42,6.01c-19.37,12.78-35.6,15.52-57.9,9.78c-5.01-1.29-9.76-2.9-14.35-4.45
						c-10.13-3.43-19.7-6.65-31.59-6.61c-11.73,0.06-23.07,1.6-34.03,3.08c-17.37,2.35-33.78,4.57-52.03,1.58
						c-2.96-0.49-5.97-1.08-8.88-1.66c-6.97-1.38-14.19-2.81-21.49-2.87c-9.48-0.08-21.52,2.77-26.94,11.03
						c-3.75,5.72-3.33,12.51-2.92,19.06c0.44,6.99,0.85,13.59-3.31,19.08c-0.57,0.75-1.22,1.43-1.9,2.09h1.78
						c0.45-0.47,0.87-0.96,1.26-1.48c4.39-5.79,3.95-12.88,3.52-19.74c-0.4-6.4-0.81-13.02,2.75-18.46
						c5.13-7.82,16.67-10.52,25.74-10.44c7.15,0.06,14.29,1.48,21.19,2.84c2.92,0.58,5.94,1.18,8.93,1.67
						c18.48,3.03,35.78,0.69,52.5-1.57c10.91-1.48,22.19-3,33.82-3.06c11.55-0.07,21.07,3.14,31.07,6.53
						c4.62,1.56,9.39,3.18,14.46,4.49c22.48,5.78,39.61,2.9,59.13-9.97c8.1-5.34,15.23-7.3,21.2-5.81
						c6.97,1.73,12.79,8.28,17.3,19.44c4.32,10.69,13.73,22.23,26.06,19.59c12.34-2.64,13.85-16.9,14.02-21.21
						c0.03-0.83,0.06-1.68,0.08-2.53c0.23-7.8,0.46-15.87,6.76-21.04c3.45-2.83,8.35-4.35,13.09-5.83
						c6.27-1.95,12.76-3.97,15.7-9.05c1.98-3.41,1.69-7.24,1.42-10.95c-0.21-2.76-0.42-5.62,0.32-8.25
						c1.25-4.46,5.15-7.88,10.99-9.63c8.34-2.5,18.99-1.15,25.91,3.28c9.71,6.22,15.03,15.96,20.17,25.37
						c1.23,2.26,2.51,4.6,3.83,6.84c1.36,2.32,11.52,19.09,22.98,22.4V189.39z"/>
				</g>
			</g>
		</g>
	</g>
</g>
</svg>
