<?xml version="1.0" encoding="utf-8"?>
<!-- Generator: Adobe Illustrator 24.2.3, SVG Export Plug-In . SVG Version: 6.00 Build 0)  -->
<svg version="1.1" id="Object" xmlns="http://www.w3.org/2000/svg" xmlns:xlink="http://www.w3.org/1999/xlink" x="0px" y="0px"
	 viewBox="0 0 500 500" style="enable-background:new 0 0 500 500;" xml:space="preserve">
<style type="text/css">
	.st0{fill:none;stroke:#000000;stroke-miterlimit:10;}
</style>
<path class="st0" d="M184.84,202.38l267.65-73.13"/>
<path class="st0" d="M398.74,61.32L455,161.66"/>
<path class="st0" d="M455,276.21L285.05,436.01"/>
<path class="st0" d="M455,269.83L285.05,406.43"/>
<path class="st0" d="M46.29,187.96l128.38-47.95"/>
<path class="st0" d="M398.74,206.32l-238.38-66.31"/>
<path class="st0" d="M46.29,279.4l137.43,42.63"/>
<path class="st0" d="M306.51,406.43L46.29,291.58"/>
<path class="st0" d="M306.51,436.01L46.29,303.76 M455,222.18l-158.34-32.67"/>
<path class="st0" d="M313.67,190.66L46.29,226.62"/>
<path class="st0" d="M46.29,276.89l274.87,75.01"/>
<path class="st0" d="M300.43,351.91L455,261.04"/>
<path class="st0" d="M424.84,70.02L46.29,205.85 M183.72,235.06l-137.43,2.77 M160.35,235.06L455,240.21"/>
<path class="st0" d="M167.31,322.04L455,249.24 M455,158.53L398.74,58.18"/>
<path class="st0" d="M285.05,432.87L455,273.08"/>
<path class="st0" d="M455,266.7L285.05,403.29"/>
<path class="st0" d="M46.29,184.82l128.38-47.95"/>
<path class="st0" d="M398.74,203.19l-238.38-66.31"/>
<path class="st0" d="M46.29,276.27l137.43,42.63"/>
<path class="st0" d="M306.51,403.29L46.29,288.45"/>
<path class="st0" d="M306.51,432.87L46.29,300.63"/>
<path class="st0" d="M296.66,186.38L455,219.05"/>
<path class="st0" d="M313.67,187.53L46.29,223.49"/>
<path class="st0" d="M46.29,273.76l274.87,75.01"/>
<path class="st0" d="M300.43,348.77L455,257.9"/>
<path class="st0" d="M424.84,66.88L46.29,202.71"/>
<path class="st0" d="M183.72,231.93L46.29,234.7"/>
<path class="st0" d="M160.35,231.93L455,237.08"/>
<path class="st0" d="M167.31,318.9L455,246.11"/>
<path class="st0" d="M455,164.06L398.74,63.72"/>
<path class="st0" d="M455,278.62L285.05,438.41 M455,272.24L285.05,408.83"/>
<path class="st0" d="M46.29,190.36l128.38-47.95"/>
<path class="st0" d="M398.74,208.73l-238.38-66.31"/>
<path class="st0" d="M46.29,281.81l137.43,42.63"/>
<path class="st0" d="M306.51,408.83L46.29,293.99"/>
<path class="st0" d="M306.51,438.41L46.29,306.17"/>
<path class="st0" d="M296.66,191.92L455,224.59"/>
<path class="st0" d="M313.67,193.07L46.29,229.03"/>
<path class="st0" d="M46.29,279.29l274.87,75.01"/>
<path class="st0" d="M300.43,354.31L455,263.44"/>
<path class="st0" d="M424.84,72.42L46.29,208.25"/>
<path class="st0" d="M183.72,237.47l-137.43,2.77 M160.35,237.47L455,242.62"/>
<path class="st0" d="M167.31,324.44L455,251.65"/>
<path class="st0" d="M54.58,185.15v122.82l-3.78-1.9V186.56L54.58,185.15z"/>
<path class="st0" d="M54.58,185.15l4.12,0.88v120.71l-4.12,1.23"/>
<path class="st0" d="M176.4,319.74V144.47l8.45,2.35V317.6L176.4,319.74z"/>
<path class="st0" d="M176.4,319.74l-8.12-2.5V146.97l8.12-2.5V319.74z"/>
<path class="st0" d="M222.17,203.61v121.28l-6.13-1.67v-118.8L222.17,203.61z"/>
<path class="st0" d="M222.17,203.61l6.24,0.97v118.06l-6.24,2.25"/>
<path class="st0" d="M298.31,345.67V192.73l8.69-1.1v156.42L298.31,345.67z"/>
<path class="st0" d="M307,191.63l7.89,1.65V343.4l-7.89,4.64V191.63z"/>
<path class="st0" d="M411.88,84.76v231.99l-4.71,4.43V76.36L411.88,84.76z"/>
<path class="st0" d="M407.17,321.18l-7.36-1.01V79l7.36-2.64V321.18z"/>
<path class="st0" d="M447.8,148.82v134.16l-2.82,2.66V143.78L447.8,148.82z M444.98,143.78l-4.43,1.49v140.36h4.43"/>
<path class="st0" d="M278.56,122.51v181.26l-6.37-1.16V124.79L278.56,122.51z"/>
<path class="st0" d="M278.56,122.51l6.49,3.48v174.73l-6.49,3.04V122.51z M413.36,322.04L46.29,271.52"/>
<path class="st0" d="M440.55,311.59l-60.85-6.29v-98.75"/>
<path class="st0" d="M372.08,103.61l-68.09,22.62"/>
<path class="st0" d="M308.28,121.59v70.04"/>
<path class="st0" d="M368.79,116.37l-46.6,14.5l-13.92-6.07 M322.2,130.87v63.1"/>
<path class="st0" d="M327.13,195.78v-61.43l41.66-12.76"/>
<path class="st0" d="M368.79,124.78l-38.18,11.6l-3.48-2.03"/>
<path class="st0" d="M330.61,136.38v60.14"/>
<path class="st0" d="M352.57,126.56v74.48"/>
<path class="st0" d="M355.75,201.7v-76.11l2.59,2.37v74.28"/>
<path class="st0" d="M436.34,150.64v50.17l-18.08-9.19v-64.76L436.34,150.64z"/>
<path class="st0" d="M436.34,150.64h-5.12l-12.95-13.53"/>
<path class="st0" d="M431.22,150.64v47.41"/>
<path class="st0" d="M418.27,140.01l11.21,11.79v45.52"/>
<path class="st0" d="M429.48,151.8h-1.4l-9.81-9.43"/>
<path class="st0" d="M428.08,151.8v44.81"/>
<path class="st0" d="M379.7,305.31"/>
<path class="st0" d="M247.83,217.56v104.48l-14.6,5.87V219.08l56.95-5.95v130.65"/>
<path class="st0" d="M247.83,322.04l42.35,10.92"/>
<path class="st0" d="M266.88,255.67h-14.31v-26.54l14.31-1.16V255.67z"/>
<path class="st0" d="M287.57,226.62v29.05h-17.59v-27.7L287.57,226.62z"/>
<path class="st0" d="M252.58,259.1h14.31v25.52l-14.31-0.97V259.1z"/>
<path class="st0" d="M287.57,259.49v26.15l-17.59-1.02V259.1L287.57,259.49z"/>
<path class="st0" d="M373.52,219.37v19.42l-49.7-0.87v-24.79L373.52,219.37z"/>
<path class="st0" d="M367.95,238.69v-20.02"/>
<path class="st0" d="M346.94,216.04v22.29"/>
<path class="st0" d="M351.01,216.55v21.78"/>
<path class="st0" d="M344.02,216.04v22.25"/>
<path class="st0" d="M436.34,227.44v12.45l-18.08-0.32v-14.69L436.34,227.44z"/>
<path class="st0" d="M433.57,227.04v12.79"/>
<path class="st0" d="M427.3,226.16v13.57"/>
<path class="st0" d="M424.84,225.96v13.72"/>
<path class="st0" d="M423.29,225.59v14.07"/>
<path class="st0" d="M190.35,316.21V207.25L307,191.63v156.42l72.7-42.74l27.48,2.84l-114.52,92.17L50.8,293.58V183.7"/>
<path class="st0" d="M407.17,70.02v142.3"/>
<path class="st0" d="M233.23,327.91l-42.88-11.7l-13.95,3.53v-84.36h-7.84v-93.09"/>
<path class="st0" d="M88.69,292.55l-29.99,4.23v-58.94l29.42-0.84L88.69,292.55l87.71,27.18"/>
<path class="st0" d="M292.58,400.31v28.61L50.8,306.07v-12.49"/>
<path class="st0" d="M174.66,410.21c0,5.46-11.56,9.89-25.81,9.89c-14.25,0-25.81-4.43-25.81-9.89s11.56-9.89,25.81-9.89
	C163.11,400.31,174.66,404.74,174.66,410.21z"/>
<path class="st0" d="M130.45,379.95c0,2.73-5.78,4.95-12.91,4.95c-7.13,0-12.91-2.21-12.91-4.95s5.78-4.95,12.91-4.95
	C124.67,375,130.45,377.21,130.45,379.95z"/>
<path class="st0" d="M431.17,356.11c0,2.73-5.78,4.95-12.91,4.95s-12.91-2.21-12.91-4.95s5.78-4.95,12.91-4.95
	S431.17,353.38,431.17,356.11z"/>
<path class="st0" d="M407.91,379.95c0,2.73-5.78,4.95-12.91,4.95s-12.91-2.21-12.91-4.95S387.87,375,395,375
	S407.91,377.21,407.91,379.95z"/>
<path class="st0" d="M380.85,410.21c0,2.73-5.78,4.95-12.91,4.95s-12.91-2.21-12.91-4.95s5.78-4.95,12.91-4.95
	S380.85,407.48,380.85,410.21z"/>
<path class="st0" d="M50.8,186.56l117.75-44.27l103.64,28.83v-46.33l134.98-48.43l40.63,72.46v134.16L292.58,428.93"/>
<path class="st0" d="M272.19,171.12v25.14"/>
<path class="st0" d="M407.17,308.15v-95.83"/>
<path class="st0" d="M307,191.63l72.28,14.93l0.41,98.75"/>
<path class="st0" d="M263.98,183.19v22.66l-72.69-14.22v-27.13L263.98,183.19z"/>
<path class="st0" d="M258.42,204.76l-0.3-20.1l5.86-1.48"/>
<path class="st0" d="M191.29,168.04l66.83,16.62"/>
<path class="st0" d="M191.29,169.98l64.82,15.95v18.38"/>
<path class="st0" d="M254.51,204v-18.07h1.6"/>
<path class="st0" d="M241.01,182.21v19.14"/>
<path class="st0" d="M238.76,181.66v19.08"/>
<path class="st0" d="M237.21,181.66v19.02"/>
<path class="st0" d="M216.04,176.35v20.12"/>
<path class="st0" d="M212.94,195.86V175.3"/>
<path class="st0" d="M211.12,174.85v20.58"/>
<path class="st0" d="M168.55,235.38l-80.44,1.62"/>
<path class="st0" d="M147.21,169.64v43.41"/>
<path class="st0" d="M115,181.19v36.19"/>
<path class="st0" d="M95.45,188.21v31.8"/>
<path class="st0" d="M69.49,197.52v26.78"/>
<path class="st0" d="M69.49,197.52l3.87,0.53v24.93"/>
<path class="st0" d="M73.35,198.06l22.1-7.11"/>
<path class="st0" d="M115,181.19l5.23,0.62v34.75"/>
<path class="st0" d="M120.24,181.82l26.97-9.28"/>
<path class="st0" d="M121.88,216.46v-33.62l25.33-8.51"/>
<path class="st0" d="M136.28,177.99v36.52"/>
<path class="st0" d="M138.37,214.24v-36.94l1.49,0.7v36.04"/>
<path class="st0" d="M121.88,182.83l1.16,0.48v32.98"/>
<path class="st0" d="M123.04,183.32l13.24-4.25"/>
<path class="st0" d="M139.86,177.99l7.35-2.51"/>
<path class="st0" d="M74.72,222.8v-23.92l20.73-6.19"/>
<path class="st0" d="M85.08,195.79v25.62"/>
<path class="st0" d="M86.46,221.22v-25.84l1,0.41v25.3"/>
<path class="st0" d="M74.72,198.88l0.93,0.34v23.46"/>
<path class="st0" d="M75.65,199.22l9.44-2.76"/>
<path class="st0" d="M87.47,195.79l7.99-2.37"/>
<path class="st0" d="M54.58,151.8v194.07"/>
<path class="st0" d="M168.28,115.51v289.47"/>
<path class="st0" d="M176.4,118.7v294.68"/>
<path class="st0" d="M271.85,112.61v328.57"/>
<path class="st0" d="M407.17,54.77v296.64"/>
<path class="st0" d="M222.17,92.56v246.72"/>
<path class="st0" d="M447.8,121.06v191.32"/>
<path class="st0" d="M307.28,168.59v191.32"/>
<path class="st0" d="M46.29,174.35L423.29,24.54"/>
<path class="st0" d="M455,143.78L386.46,24.54"/>
<path class="st0" d="M368.79,101.73v102.42"/>
<path class="st0" d="M96.17,242.62h72.12v45.83l-72.12-10.06V242.62z"/>
<path class="st0" d="M100.74,242.62v35.05l-4.57,0.72"/>
<path class="st0" d="M100.74,277.66l67.55,8.89"/>
<path class="st0" d="M168.28,283.9l-65.35-7.63v-33.65"/>
<path class="st0" d="M132.22,242.62v37.07 M137.64,280.08v-37.47"/>
<path class="st0" d="M135.61,242.62v37.47"/>
<path class="st0" d="M104.58,242.62v33.65h-1.65"/>
</svg>
