<?xml version="1.0" encoding="utf-8"?>
<!-- Generator: Adobe Illustrator 24.2.3, SVG Export Plug-In . SVG Version: 6.00 Build 0)  -->
<svg version="1.1"
	 id="Layer_1" xmlns:cc="http://creativecommons.org/ns#" xmlns:dc="http://purl.org/dc/elements/1.1/" xmlns:rdf="http://www.w3.org/1999/02/22-rdf-syntax-ns#"
	 xmlns="http://www.w3.org/2000/svg" xmlns:xlink="http://www.w3.org/1999/xlink" x="0px" y="0px" viewBox="0 0 252 172.5"
	 style="enable-background:new 0 0 252 172.5;" xml:space="preserve">
<style type="text/css">
	.st0{fill:none;stroke:#231F20;stroke-miterlimit:10;}
</style>
<g>
	<path class="st0" d="M56.2,1.4c-2.5,0-3,0.4-1,1.9l3.3,2.6c2,1.6,5.3,5,7.3,6.6c0,0,2.5,2,6.3,8.2c3.3,5.5,53,100.5,53.8,100.5
		c0.8,0,50.4-95,53.8-100.5c3.8-6.2,6.3-8.2,6.3-8.2c2-1.6,5.3-5,7.3-6.6l3.3-2.6c2-1.6,1.6-1.9-1-1.9h-53.9c-2.5,0-2.5,0.8-0.5,2.4
		c0,0,2.5,1.7,4.4,3c1.8,1.2,6,4.5,6.3,6.4c0.3,1.8-0.4,4.2-1.6,6.7c-3,5.9-23.6,43.7-24.3,43.8c-0.7-0.1-21.4-37.9-24.3-43.8
		c-1.3-2.5-1.9-4.9-1.6-6.7c0.3-1.8,4.4-5.2,6.3-6.4c1.8-1.2,4.4-3,4.4-3c2-1.5,2-2.4-0.5-2.4L56.2,1.4L56.2,1.4L56.2,1.4z"/>
</g>
</svg>
